<svg width="40" height="40" viewBox="0 0 40 40" fill="none" xmlns="http://www.w3.org/2000/svg">
<path d="M19.4271 9.46392L19.2143 9.11549L19.0007 9.46343L15.9507 14.4314L15.7169 14.8122H16.1638H22.2479H22.6936L22.4613 14.4319L19.4271 9.46392ZM20.3419 5.8827L20.5552 5.75234L20.3419 5.8827L26.1854 15.4449C26.7238 16.3259 26.0898 17.4565 25.0572 17.4565H13.3702C12.3377 17.4565 11.7036 16.3259 12.242 15.4449L18.0855 5.8827L17.8722 5.75234L18.0855 5.8827C18.601 5.0391 19.8264 5.0391 20.3419 5.8827ZM8.20873 24.5311H7.95873V24.7811V31.0697V31.3197H8.20873H14.4973H14.7473V31.0697V24.7811V24.5311H14.4973H8.20873ZM21.0358 27.9254C21.0358 24.1488 24.0839 21.1007 27.8605 21.1007C31.637 21.1007 34.6851 24.1488 34.6851 27.9254C34.6851 31.7019 31.637 34.75 27.8605 34.75C24.0839 34.75 21.0358 31.7019 21.0358 27.9254ZM23.6801 27.9254C23.6801 30.233 25.5529 32.1057 27.8605 32.1057C30.1681 32.1057 32.0408 30.233 32.0408 27.9254C32.0408 25.6177 30.1681 23.745 27.8605 23.745C25.5529 23.745 23.6801 25.6177 23.6801 27.9254ZM8.20873 33.9639C6.61026 33.9639 5.31445 32.6682 5.31445 31.0697V24.7811C5.31445 23.1826 6.61026 21.8868 8.20873 21.8868H14.4973C16.0958 21.8868 17.3916 23.1826 17.3916 24.7811V31.0697C17.3916 32.6682 16.0958 33.9639 14.4973 33.9639H8.20873Z" fill="#B2C2CB" stroke="#2E333A" stroke-width="0.5"/>
</svg>
