<svg width="1015" height="727" viewBox="0 0 1015 727" fill="none" xmlns="http://www.w3.org/2000/svg">
<g filter="url(#filter0_dd_230_3000)">
<rect x="37" y="37" width="924" height="636" rx="25" fill="#2E333A"/>
<path d="M72.955 72.57C75.5217 72.57 77.7733 73.0717 79.71 74.075C81.67 75.0783 83.175 76.5133 84.225 78.38C85.2983 80.2233 85.835 82.37 85.835 84.82C85.835 87.27 85.2983 89.4167 84.225 91.26C83.175 93.08 81.67 94.4917 79.71 95.495C77.7733 96.4983 75.5217 97 72.955 97H64.415V72.57H72.955ZM72.78 92.835C75.3467 92.835 77.33 92.135 78.73 90.735C80.13 89.335 80.83 87.3633 80.83 84.82C80.83 82.2767 80.13 80.2933 78.73 78.87C77.33 77.4233 75.3467 76.7 72.78 76.7H69.315V92.835H72.78ZM88.2429 87.235C88.2429 85.275 88.6279 83.5367 89.3979 82.02C90.1912 80.5033 91.2529 79.3367 92.5829 78.52C93.9362 77.7033 95.4412 77.295 97.0979 77.295C98.5446 77.295 99.8046 77.5867 100.878 78.17C101.975 78.7533 102.85 79.4883 103.503 80.375V77.61H108.438V97H103.503V94.165C102.873 95.075 101.998 95.8333 100.878 96.44C99.7812 97.0233 98.5096 97.315 97.0629 97.315C95.4296 97.315 93.9362 96.895 92.5829 96.055C91.2529 95.215 90.1912 94.0367 89.3979 92.52C88.6279 90.98 88.2429 89.2183 88.2429 87.235ZM103.503 87.305C103.503 86.115 103.27 85.1 102.803 84.26C102.336 83.3967 101.706 82.7433 100.913 82.3C100.12 81.8333 99.2679 81.6 98.3579 81.6C97.4479 81.6 96.6079 81.8217 95.8379 82.265C95.0679 82.7083 94.4379 83.3617 93.9479 84.225C93.4812 85.065 93.2479 86.0683 93.2479 87.235C93.2479 88.4017 93.4812 89.4283 93.9479 90.315C94.4379 91.1783 95.0679 91.8433 95.8379 92.31C96.6312 92.7767 97.4712 93.01 98.3579 93.01C99.2679 93.01 100.12 92.7883 100.913 92.345C101.706 91.8783 102.336 91.225 102.803 90.385C103.27 89.5217 103.503 88.495 103.503 87.305ZM115.709 75.3C114.845 75.3 114.122 75.0317 113.539 74.495C112.979 73.935 112.699 73.2467 112.699 72.43C112.699 71.6133 112.979 70.9367 113.539 70.4C114.122 69.84 114.845 69.56 115.709 69.56C116.572 69.56 117.284 69.84 117.844 70.4C118.427 70.9367 118.719 71.6133 118.719 72.43C118.719 73.2467 118.427 73.935 117.844 74.495C117.284 75.0317 116.572 75.3 115.709 75.3ZM118.124 77.61V97H113.224V77.61H118.124ZM127.865 71.1V97H122.965V71.1H127.865ZM151.256 77.61L139.251 106.17H134.036L138.236 96.51L130.466 77.61H135.961L140.966 91.155L146.041 77.61H151.256ZM170.672 97.245C168.969 97.245 167.429 96.9533 166.052 96.37C164.699 95.7867 163.626 94.9467 162.832 93.85C162.039 92.7533 161.631 91.4583 161.607 89.965H166.857C166.927 90.9683 167.277 91.7617 167.907 92.345C168.561 92.9283 169.447 93.22 170.567 93.22C171.711 93.22 172.609 92.9517 173.262 92.415C173.916 91.855 174.242 91.1317 174.242 90.245C174.242 89.5217 174.021 88.9267 173.577 88.46C173.134 87.9933 172.574 87.6317 171.897 87.375C171.244 87.095 170.334 86.7917 169.167 86.465C167.581 85.9983 166.286 85.5433 165.282 85.1C164.302 84.6333 163.451 83.945 162.727 83.035C162.027 82.1017 161.677 80.865 161.677 79.325C161.677 77.8783 162.039 76.6183 162.762 75.545C163.486 74.4717 164.501 73.655 165.807 73.095C167.114 72.5117 168.607 72.22 170.287 72.22C172.807 72.22 174.849 72.8383 176.412 74.075C177.999 75.2883 178.874 76.9917 179.037 79.185H173.647C173.601 78.345 173.239 77.6567 172.562 77.12C171.909 76.56 171.034 76.28 169.937 76.28C168.981 76.28 168.211 76.525 167.627 77.015C167.067 77.505 166.787 78.2167 166.787 79.15C166.787 79.8033 166.997 80.3517 167.417 80.795C167.861 81.215 168.397 81.565 169.027 81.845C169.681 82.1017 170.591 82.405 171.757 82.755C173.344 83.2217 174.639 83.6883 175.642 84.155C176.646 84.6217 177.509 85.3217 178.232 86.255C178.956 87.1883 179.317 88.4133 179.317 89.93C179.317 91.2367 178.979 92.45 178.302 93.57C177.626 94.69 176.634 95.5883 175.327 96.265C174.021 96.9183 172.469 97.245 170.672 97.245ZM188.465 93.115H196.515V97H183.565V72.57H188.465V93.115ZM217.445 80.13C217.445 81.4367 217.13 82.6617 216.5 83.805C215.893 84.9483 214.925 85.87 213.595 86.57C212.288 87.27 210.632 87.62 208.625 87.62H204.53V97H199.63V72.57H208.625C210.515 72.57 212.125 72.8967 213.455 73.55C214.785 74.2033 215.777 75.1017 216.43 76.245C217.107 77.3883 217.445 78.6833 217.445 80.13ZM208.415 83.665C209.768 83.665 210.772 83.3617 211.425 82.755C212.078 82.125 212.405 81.25 212.405 80.13C212.405 77.75 211.075 76.56 208.415 76.56H204.53V83.665H208.415Z" fill="white"/>
<rect x="62" y="137" width="95" height="33" rx="5" fill="#668599"/>
<path d="M82.404 151.324C82.404 151.996 82.242 152.626 81.918 153.214C81.606 153.802 81.108 154.276 80.424 154.636C79.752 154.996 78.9 155.176 77.868 155.176H75.762V160H73.242V147.436H77.868C78.84 147.436 79.668 147.604 80.352 147.94C81.036 148.276 81.546 148.738 81.882 149.326C82.23 149.914 82.404 150.58 82.404 151.324ZM77.76 153.142C78.456 153.142 78.972 152.986 79.308 152.674C79.644 152.35 79.812 151.9 79.812 151.324C79.812 150.1 79.128 149.488 77.76 149.488H75.762V153.142H77.76ZM86.7132 151.576C87.0372 151.048 87.4572 150.634 87.9732 150.334C88.5012 150.034 89.1012 149.884 89.7732 149.884V152.53H89.1072C88.3152 152.53 87.7152 152.716 87.3072 153.088C86.9112 153.46 86.7132 154.108 86.7132 155.032V160H84.1932V150.028H86.7132V151.576ZM100.741 154.798C100.741 155.158 100.717 155.482 100.669 155.77H93.3785C93.4385 156.49 93.6905 157.054 94.1345 157.462C94.5785 157.87 95.1245 158.074 95.7725 158.074C96.7085 158.074 97.3745 157.672 97.7705 156.868H100.489C100.201 157.828 99.6485 158.62 98.8325 159.244C98.0165 159.856 97.0145 160.162 95.8265 160.162C94.8665 160.162 94.0025 159.952 93.2345 159.532C92.4785 159.1 91.8845 158.494 91.4525 157.714C91.0325 156.934 90.8225 156.034 90.8225 155.014C90.8225 153.982 91.0325 153.076 91.4525 152.296C91.8725 151.516 92.4605 150.916 93.2165 150.496C93.9725 150.076 94.8425 149.866 95.8265 149.866C96.7745 149.866 97.6205 150.07 98.3645 150.478C99.1205 150.886 99.7025 151.468 100.111 152.224C100.531 152.968 100.741 153.826 100.741 154.798ZM98.1305 154.078C98.1185 153.43 97.8845 152.914 97.4285 152.53C96.9725 152.134 96.4145 151.936 95.7545 151.936C95.1305 151.936 94.6025 152.128 94.1705 152.512C93.7505 152.884 93.4925 153.406 93.3965 154.078H98.1305ZM106.738 157.678L109.258 150.028H111.94L108.25 160H105.19L101.518 150.028H104.218L106.738 157.678ZM121.982 160.126C121.106 160.126 120.314 159.976 119.606 159.676C118.91 159.376 118.358 158.944 117.95 158.38C117.542 157.816 117.332 157.15 117.32 156.382H120.02C120.056 156.898 120.236 157.306 120.56 157.606C120.896 157.906 121.352 158.056 121.928 158.056C122.516 158.056 122.978 157.918 123.314 157.642C123.65 157.354 123.818 156.982 123.818 156.526C123.818 156.154 123.704 155.848 123.476 155.608C123.248 155.368 122.96 155.182 122.612 155.05C122.276 154.906 121.808 154.75 121.208 154.582C120.392 154.342 119.726 154.108 119.21 153.88C118.706 153.64 118.268 153.286 117.896 152.818C117.536 152.338 117.356 151.702 117.356 150.91C117.356 150.166 117.542 149.518 117.914 148.966C118.286 148.414 118.808 147.994 119.48 147.706C120.152 147.406 120.92 147.256 121.784 147.256C123.08 147.256 124.13 147.574 124.934 148.21C125.75 148.834 126.2 149.71 126.284 150.838H123.512C123.488 150.406 123.302 150.052 122.954 149.776C122.618 149.488 122.168 149.344 121.604 149.344C121.112 149.344 120.716 149.47 120.416 149.722C120.128 149.974 119.984 150.34 119.984 150.82C119.984 151.156 120.092 151.438 120.308 151.666C120.536 151.882 120.812 152.062 121.136 152.206C121.472 152.338 121.94 152.494 122.54 152.674C123.356 152.914 124.022 153.154 124.538 153.394C125.054 153.634 125.498 153.994 125.87 154.474C126.242 154.954 126.428 155.584 126.428 156.364C126.428 157.036 126.254 157.66 125.906 158.236C125.558 158.812 125.048 159.274 124.376 159.622C123.704 159.958 122.906 160.126 121.982 160.126ZM131.133 158.002H135.273V160H128.613V147.436H131.133V158.002ZM146.037 151.324C146.037 151.996 145.875 152.626 145.551 153.214C145.239 153.802 144.741 154.276 144.057 154.636C143.385 154.996 142.533 155.176 141.501 155.176H139.395V160H136.875V147.436H141.501C142.473 147.436 143.301 147.604 143.985 147.94C144.669 148.276 145.179 148.738 145.515 149.326C145.863 149.914 146.037 150.58 146.037 151.324ZM141.393 153.142C142.089 153.142 142.605 152.986 142.941 152.674C143.277 152.35 143.445 151.9 143.445 151.324C143.445 150.1 142.761 149.488 141.393 149.488H139.395V153.142H141.393Z" fill="#E7ECEF"/>
<rect x="172" y="137" width="112" height="33" rx="5" fill="#0ED2F6"/>
<path d="M191.792 147.436V149.47H188.444V160H185.924V149.47H182.576V147.436H191.792ZM198.059 160.162C197.099 160.162 196.235 159.952 195.467 159.532C194.699 159.1 194.093 158.494 193.649 157.714C193.217 156.934 193.001 156.034 193.001 155.014C193.001 153.994 193.223 153.094 193.667 152.314C194.123 151.534 194.741 150.934 195.521 150.514C196.301 150.082 197.171 149.866 198.131 149.866C199.091 149.866 199.961 150.082 200.741 150.514C201.521 150.934 202.133 151.534 202.577 152.314C203.033 153.094 203.261 153.994 203.261 155.014C203.261 156.034 203.027 156.934 202.559 157.714C202.103 158.494 201.479 159.1 200.687 159.532C199.907 159.952 199.031 160.162 198.059 160.162ZM198.059 157.966C198.515 157.966 198.941 157.858 199.337 157.642C199.745 157.414 200.069 157.078 200.309 156.634C200.549 156.19 200.669 155.65 200.669 155.014C200.669 154.066 200.417 153.34 199.913 152.836C199.421 152.32 198.815 152.062 198.095 152.062C197.375 152.062 196.769 152.32 196.277 152.836C195.797 153.34 195.557 154.066 195.557 155.014C195.557 155.962 195.791 156.694 196.259 157.21C196.739 157.714 197.339 157.966 198.059 157.966ZM204.461 154.978C204.461 153.97 204.659 153.076 205.055 152.296C205.463 151.516 206.015 150.916 206.711 150.496C207.407 150.076 208.181 149.866 209.033 149.866C209.681 149.866 210.299 150.01 210.887 150.298C211.475 150.574 211.943 150.946 212.291 151.414V146.68H214.847V160H212.291V158.524C211.979 159.016 211.541 159.412 210.977 159.712C210.413 160.012 209.759 160.162 209.015 160.162C208.175 160.162 207.407 159.946 206.711 159.514C206.015 159.082 205.463 158.476 205.055 157.696C204.659 156.904 204.461 155.998 204.461 154.978ZM212.309 155.014C212.309 154.402 212.189 153.88 211.949 153.448C211.709 153.004 211.385 152.668 210.977 152.44C210.569 152.2 210.131 152.08 209.663 152.08C209.195 152.08 208.763 152.194 208.367 152.422C207.971 152.65 207.647 152.986 207.395 153.43C207.155 153.862 207.035 154.378 207.035 154.978C207.035 155.578 207.155 156.106 207.395 156.562C207.647 157.006 207.971 157.348 208.367 157.588C208.775 157.828 209.207 157.948 209.663 157.948C210.131 157.948 210.569 157.834 210.977 157.606C211.385 157.366 211.709 157.03 211.949 156.598C212.189 156.154 212.309 155.626 212.309 155.014ZM216.66 154.978C216.66 153.97 216.858 153.076 217.254 152.296C217.662 151.516 218.208 150.916 218.892 150.496C219.588 150.076 220.362 149.866 221.214 149.866C221.958 149.866 222.606 150.016 223.158 150.316C223.722 150.616 224.172 150.994 224.508 151.45V150.028H227.046V160H224.508V158.542C224.184 159.01 223.734 159.4 223.158 159.712C222.594 160.012 221.94 160.162 221.196 160.162C220.356 160.162 219.588 159.946 218.892 159.514C218.208 159.082 217.662 158.476 217.254 157.696C216.858 156.904 216.66 155.998 216.66 154.978ZM224.508 155.014C224.508 154.402 224.388 153.88 224.148 153.448C223.908 153.004 223.584 152.668 223.176 152.44C222.768 152.2 222.33 152.08 221.862 152.08C221.394 152.08 220.962 152.194 220.566 152.422C220.17 152.65 219.846 152.986 219.594 153.43C219.354 153.862 219.234 154.378 219.234 154.978C219.234 155.578 219.354 156.106 219.594 156.562C219.846 157.006 220.17 157.348 220.566 157.588C220.974 157.828 221.406 157.948 221.862 157.948C222.33 157.948 222.768 157.834 223.176 157.606C223.584 157.366 223.908 157.03 224.148 156.598C224.388 156.154 224.508 155.626 224.508 155.014ZM239.048 150.028L232.874 164.716H230.192L232.352 159.748L228.356 150.028H231.182L233.756 156.994L236.366 150.028H239.048ZM249.033 160.126C248.157 160.126 247.365 159.976 246.657 159.676C245.961 159.376 245.409 158.944 245.001 158.38C244.593 157.816 244.383 157.15 244.371 156.382H247.071C247.107 156.898 247.287 157.306 247.611 157.606C247.947 157.906 248.403 158.056 248.979 158.056C249.567 158.056 250.029 157.918 250.365 157.642C250.701 157.354 250.869 156.982 250.869 156.526C250.869 156.154 250.755 155.848 250.527 155.608C250.299 155.368 250.011 155.182 249.663 155.05C249.327 154.906 248.859 154.75 248.259 154.582C247.443 154.342 246.777 154.108 246.261 153.88C245.757 153.64 245.319 153.286 244.947 152.818C244.587 152.338 244.407 151.702 244.407 150.91C244.407 150.166 244.593 149.518 244.965 148.966C245.337 148.414 245.859 147.994 246.531 147.706C247.203 147.406 247.971 147.256 248.835 147.256C250.131 147.256 251.181 147.574 251.985 148.21C252.801 148.834 253.251 149.71 253.335 150.838H250.563C250.539 150.406 250.353 150.052 250.005 149.776C249.669 149.488 249.219 149.344 248.655 149.344C248.163 149.344 247.767 149.47 247.467 149.722C247.179 149.974 247.035 150.34 247.035 150.82C247.035 151.156 247.143 151.438 247.359 151.666C247.587 151.882 247.863 152.062 248.187 152.206C248.523 152.338 248.991 152.494 249.591 152.674C250.407 152.914 251.073 153.154 251.589 153.394C252.105 153.634 252.549 153.994 252.921 154.474C253.293 154.954 253.479 155.584 253.479 156.364C253.479 157.036 253.305 157.66 252.957 158.236C252.609 158.812 252.099 159.274 251.427 159.622C250.755 159.958 249.957 160.126 249.033 160.126ZM258.184 158.002H262.324V160H255.664V147.436H258.184V158.002ZM273.088 151.324C273.088 151.996 272.926 152.626 272.602 153.214C272.29 153.802 271.792 154.276 271.108 154.636C270.436 154.996 269.584 155.176 268.552 155.176H266.446V160H263.926V147.436H268.552C269.524 147.436 270.352 147.604 271.036 147.94C271.72 148.276 272.23 148.738 272.566 149.326C272.914 149.914 273.088 150.58 273.088 151.324ZM268.444 153.142C269.14 153.142 269.656 152.986 269.992 152.674C270.328 152.35 270.496 151.9 270.496 151.324C270.496 150.1 269.812 149.488 268.444 149.488H266.446V153.142H268.444Z" fill="#0C2756"/>
<g filter="url(#filter1_ii_230_3000)">
<rect x="817" y="72" width="119" height="88" rx="10" fill="#2E333A"/>
<path d="M852.616 86.228V87.81H850.012V96H848.052V87.81H845.448V86.228H852.616ZM857.49 96.126C856.743 96.126 856.071 95.9627 855.474 95.636C854.877 95.3 854.405 94.8287 854.06 94.222C853.724 93.6153 853.556 92.9153 853.556 92.122C853.556 91.3287 853.729 90.6287 854.074 90.022C854.429 89.4153 854.909 88.9487 855.516 88.622C856.123 88.286 856.799 88.118 857.546 88.118C858.293 88.118 858.969 88.286 859.576 88.622C860.183 88.9487 860.659 89.4153 861.004 90.022C861.359 90.6287 861.536 91.3287 861.536 92.122C861.536 92.9153 861.354 93.6153 860.99 94.222C860.635 94.8287 860.15 95.3 859.534 95.636C858.927 95.9627 858.246 96.126 857.49 96.126ZM857.49 94.418C857.845 94.418 858.176 94.334 858.484 94.166C858.801 93.9887 859.053 93.7273 859.24 93.382C859.427 93.0367 859.52 92.6167 859.52 92.122C859.52 91.3847 859.324 90.82 858.932 90.428C858.549 90.0267 858.078 89.826 857.518 89.826C856.958 89.826 856.487 90.0267 856.104 90.428C855.731 90.82 855.544 91.3847 855.544 92.122C855.544 92.8593 855.726 93.4287 856.09 93.83C856.463 94.222 856.93 94.418 857.49 94.418ZM865.256 89.854V93.606C865.256 93.8673 865.316 94.0587 865.438 94.18C865.568 94.292 865.783 94.348 866.082 94.348H866.992V96H865.76C864.108 96 863.282 95.1973 863.282 93.592V89.854H862.358V88.244H863.282V86.326H865.256V88.244H866.992V89.854H865.256ZM867.898 92.094C867.898 91.31 868.052 90.6147 868.36 90.008C868.677 89.4013 869.102 88.9347 869.634 88.608C870.175 88.2813 870.777 88.118 871.44 88.118C872.018 88.118 872.522 88.2347 872.952 88.468C873.39 88.7013 873.74 88.9953 874.002 89.35V88.244H875.976V96H874.002V94.866C873.75 95.23 873.4 95.5333 872.952 95.776C872.513 96.0093 872.004 96.126 871.426 96.126C870.772 96.126 870.175 95.958 869.634 95.622C869.102 95.286 868.677 94.8147 868.36 94.208C868.052 93.592 867.898 92.8873 867.898 92.094ZM874.002 92.122C874.002 91.646 873.908 91.24 873.722 90.904C873.535 90.5587 873.283 90.2973 872.966 90.12C872.648 89.9333 872.308 89.84 871.944 89.84C871.58 89.84 871.244 89.9287 870.936 90.106C870.628 90.2833 870.376 90.5447 870.18 90.89C869.993 91.226 869.9 91.6273 869.9 92.094C869.9 92.5607 869.993 92.9713 870.18 93.326C870.376 93.6713 870.628 93.9373 870.936 94.124C871.253 94.3107 871.589 94.404 871.944 94.404C872.308 94.404 872.648 94.3153 872.966 94.138C873.283 93.9513 873.535 93.69 873.722 93.354C873.908 93.0087 874.002 92.598 874.002 92.122ZM879.85 85.64V96H877.89V85.64H879.85ZM888.496 96.098C887.815 96.098 887.199 95.9813 886.648 95.748C886.107 95.5147 885.678 95.1787 885.36 94.74C885.043 94.3013 884.88 93.7833 884.87 93.186H886.97C886.998 93.5873 887.138 93.9047 887.39 94.138C887.652 94.3713 888.006 94.488 888.454 94.488C888.912 94.488 889.271 94.3807 889.532 94.166C889.794 93.942 889.924 93.6527 889.924 93.298C889.924 93.0087 889.836 92.7707 889.658 92.584C889.481 92.3973 889.257 92.2527 888.986 92.15C888.725 92.038 888.361 91.9167 887.894 91.786C887.26 91.5993 886.742 91.4173 886.34 91.24C885.948 91.0533 885.608 90.778 885.318 90.414C885.038 90.0407 884.898 89.546 884.898 88.93C884.898 88.3513 885.043 87.8473 885.332 87.418C885.622 86.9887 886.028 86.662 886.55 86.438C887.073 86.2047 887.67 86.088 888.342 86.088C889.35 86.088 890.167 86.3353 890.792 86.83C891.427 87.3153 891.777 87.9967 891.842 88.874H889.686C889.668 88.538 889.523 88.2627 889.252 88.048C888.991 87.824 888.641 87.712 888.202 87.712C887.82 87.712 887.512 87.81 887.278 88.006C887.054 88.202 886.942 88.4867 886.942 88.86C886.942 89.1213 887.026 89.3407 887.194 89.518C887.372 89.686 887.586 89.826 887.838 89.938C888.1 90.0407 888.464 90.162 888.93 90.302C889.565 90.4887 890.083 90.6753 890.484 90.862C890.886 91.0487 891.231 91.3287 891.52 91.702C891.81 92.0753 891.954 92.5653 891.954 93.172C891.954 93.6947 891.819 94.18 891.548 94.628C891.278 95.076 890.881 95.4353 890.358 95.706C889.836 95.9673 889.215 96.098 888.496 96.098ZM895.614 94.446H898.834V96H893.654V86.228H895.614V94.446ZM907.205 89.252C907.205 89.7747 907.079 90.2647 906.827 90.722C906.585 91.1793 906.197 91.548 905.665 91.828C905.143 92.108 904.48 92.248 903.677 92.248H902.039V96H900.079V86.228H903.677C904.433 86.228 905.077 86.3587 905.609 86.62C906.141 86.8813 906.538 87.2407 906.799 87.698C907.07 88.1553 907.205 88.6733 907.205 89.252ZM903.593 90.666C904.135 90.666 904.536 90.5447 904.797 90.302C905.059 90.05 905.189 89.7 905.189 89.252C905.189 88.3 904.657 87.824 903.593 87.824H902.039V90.666H903.593Z" fill="#72E4F9"/>
<path d="M861.005 118.72H849.665V124.705C850.155 124.098 850.855 123.608 851.765 123.235C852.675 122.838 853.643 122.64 854.67 122.64C856.537 122.64 858.065 123.048 859.255 123.865C860.445 124.682 861.308 125.732 861.845 127.015C862.382 128.275 862.65 129.628 862.65 131.075C862.65 133.758 861.88 135.917 860.34 137.55C858.823 139.183 856.653 140 853.83 140C851.17 140 849.047 139.335 847.46 138.005C845.873 136.675 844.975 134.937 844.765 132.79H849.525C849.735 133.723 850.202 134.47 850.925 135.03C851.672 135.59 852.617 135.87 853.76 135.87C855.137 135.87 856.175 135.438 856.875 134.575C857.575 133.712 857.925 132.568 857.925 131.145C857.925 129.698 857.563 128.602 856.84 127.855C856.14 127.085 855.102 126.7 853.725 126.7C852.745 126.7 851.928 126.945 851.275 127.435C850.622 127.925 850.155 128.578 849.875 129.395H845.185V114.415H861.005V118.72ZM866.169 135.03V131.18L877.614 114.8H883.319V130.76H886.399V135.03H883.319V140H878.419V135.03H866.169ZM878.734 120.05L871.559 130.76H878.734V120.05ZM889.519 126.91C889.519 122.873 890.242 119.712 891.689 117.425C893.159 115.138 895.586 113.995 898.969 113.995C902.352 113.995 904.767 115.138 906.214 117.425C907.684 119.712 908.419 122.873 908.419 126.91C908.419 130.97 907.684 134.155 906.214 136.465C904.767 138.775 902.352 139.93 898.969 139.93C895.586 139.93 893.159 138.775 891.689 136.465C890.242 134.155 889.519 130.97 889.519 126.91ZM903.589 126.91C903.589 125.183 903.472 123.737 903.239 122.57C903.029 121.38 902.586 120.412 901.909 119.665C901.256 118.918 900.276 118.545 898.969 118.545C897.662 118.545 896.671 118.918 895.994 119.665C895.341 120.412 894.897 121.38 894.664 122.57C894.454 123.737 894.349 125.183 894.349 126.91C894.349 128.683 894.454 130.177 894.664 131.39C894.874 132.58 895.317 133.548 895.994 134.295C896.671 135.018 897.662 135.38 898.969 135.38C900.276 135.38 901.267 135.018 901.944 134.295C902.621 133.548 903.064 132.58 903.274 131.39C903.484 130.177 903.589 128.683 903.589 126.91Z" fill="#72E4F9"/>
</g>
<path d="M936 240H499H62" stroke="#668599" stroke-linecap="round"/>
<path d="M936 335H499H62" stroke="#668599" stroke-linecap="round"/>
<path d="M936 430H499H62" stroke="#668599" stroke-linecap="round"/>
<path d="M936 525H499H62" stroke="#668599" stroke-linecap="round"/>
<path d="M936 620H499H62" stroke="#668599" stroke-linecap="round"/>
<path d="M62.828 235.264V233.716L68.876 225.04H71.36V233.482H73.034V235.264H71.36V238H69.344V235.264H62.828ZM69.434 227.128L65.186 233.482H69.434V227.128ZM74.7343 231.268C74.7343 229.192 75.0823 227.572 75.7783 226.408C76.4863 225.232 77.6983 224.644 79.4143 224.644C81.1303 224.644 82.3363 225.232 83.0323 226.408C83.7403 227.572 84.0943 229.192 84.0943 231.268C84.0943 233.368 83.7403 235.012 83.0323 236.2C82.3363 237.376 81.1303 237.964 79.4143 237.964C77.6983 237.964 76.4863 237.376 75.7783 236.2C75.0823 235.012 74.7343 233.368 74.7343 231.268ZM82.0783 231.268C82.0783 230.296 82.0123 229.474 81.8803 228.802C81.7603 228.13 81.5083 227.584 81.1243 227.164C80.7403 226.732 80.1703 226.516 79.4143 226.516C78.6583 226.516 78.0883 226.732 77.7043 227.164C77.3203 227.584 77.0623 228.13 76.9303 228.802C76.8103 229.474 76.7503 230.296 76.7503 231.268C76.7503 232.276 76.8103 233.122 76.9303 233.806C77.0503 234.49 77.3023 235.042 77.6863 235.462C78.0823 235.882 78.6583 236.092 79.4143 236.092C80.1703 236.092 80.7403 235.882 81.1243 235.462C81.5203 235.042 81.7783 234.49 81.8983 233.806C82.0183 233.122 82.0783 232.276 82.0783 231.268Z" fill="white"/>
<path d="M63.544 322.368C63.616 321.252 64.042 320.382 64.822 319.758C65.614 319.134 66.622 318.822 67.846 318.822C68.686 318.822 69.412 318.972 70.024 319.272C70.636 319.572 71.098 319.98 71.41 320.496C71.722 321.012 71.878 321.594 71.878 322.242C71.878 322.986 71.68 323.622 71.284 324.15C70.888 324.678 70.414 325.032 69.862 325.212V325.284C70.57 325.5 71.122 325.896 71.518 326.472C71.914 327.036 72.112 327.762 72.112 328.65C72.112 329.358 71.95 329.988 71.626 330.54C71.302 331.092 70.822 331.53 70.186 331.854C69.55 332.166 68.788 332.322 67.9 332.322C66.604 332.322 65.536 331.992 64.696 331.332C63.868 330.66 63.424 329.7 63.364 328.452H65.344C65.392 329.088 65.638 329.61 66.082 330.018C66.526 330.414 67.126 330.612 67.882 330.612C68.614 330.612 69.178 330.414 69.574 330.018C69.97 329.61 70.168 329.088 70.168 328.452C70.168 327.612 69.898 327.018 69.358 326.67C68.83 326.31 68.014 326.13 66.91 326.13H66.442V324.438H66.928C67.9 324.426 68.638 324.264 69.142 323.952C69.658 323.64 69.916 323.148 69.916 322.476C69.916 321.9 69.73 321.444 69.358 321.108C68.986 320.76 68.458 320.586 67.774 320.586C67.102 320.586 66.58 320.76 66.208 321.108C65.836 321.444 65.614 321.864 65.542 322.368H63.544ZM74.2675 325.518C74.2675 323.442 74.6155 321.822 75.3115 320.658C76.0195 319.482 77.2315 318.894 78.9475 318.894C80.6635 318.894 81.8695 319.482 82.5655 320.658C83.2735 321.822 83.6275 323.442 83.6275 325.518C83.6275 327.618 83.2735 329.262 82.5655 330.45C81.8695 331.626 80.6635 332.214 78.9475 332.214C77.2315 332.214 76.0195 331.626 75.3115 330.45C74.6155 329.262 74.2675 327.618 74.2675 325.518ZM81.6115 325.518C81.6115 324.546 81.5455 323.724 81.4135 323.052C81.2935 322.38 81.0415 321.834 80.6575 321.414C80.2735 320.982 79.7035 320.766 78.9475 320.766C78.1915 320.766 77.6215 320.982 77.2375 321.414C76.8535 321.834 76.5955 322.38 76.4635 323.052C76.3435 323.724 76.2835 324.546 76.2835 325.518C76.2835 326.526 76.3435 327.372 76.4635 328.056C76.5835 328.74 76.8355 329.292 77.2195 329.712C77.6155 330.132 78.1915 330.342 78.9475 330.342C79.7035 330.342 80.2735 330.132 80.6575 329.712C81.0535 329.292 81.3115 328.74 81.4315 328.056C81.5515 327.372 81.6115 326.526 81.6115 325.518Z" fill="white"/>
<path d="M65.214 423.71C66.366 422.714 67.272 421.898 67.932 421.262C68.604 420.614 69.162 419.942 69.606 419.246C70.05 418.55 70.272 417.854 70.272 417.158C70.272 416.438 70.098 415.874 69.75 415.466C69.414 415.058 68.88 414.854 68.148 414.854C67.44 414.854 66.888 415.082 66.492 415.538C66.108 415.982 65.904 416.582 65.88 417.338H63.9C63.936 415.97 64.344 414.926 65.124 414.206C65.916 413.474 66.918 413.108 68.13 413.108C69.438 413.108 70.458 413.468 71.19 414.188C71.934 414.908 72.306 415.868 72.306 417.068C72.306 417.932 72.084 418.766 71.64 419.57C71.208 420.362 70.686 421.076 70.074 421.712C69.474 422.336 68.706 423.062 67.77 423.89L66.96 424.61H72.666V426.32H63.918V424.826L65.214 423.71ZM74.4687 419.768C74.4687 417.692 74.8167 416.072 75.5127 414.908C76.2207 413.732 77.4327 413.144 79.1487 413.144C80.8647 413.144 82.0707 413.732 82.7667 414.908C83.4747 416.072 83.8287 417.692 83.8287 419.768C83.8287 421.868 83.4747 423.512 82.7667 424.7C82.0707 425.876 80.8647 426.464 79.1487 426.464C77.4327 426.464 76.2207 425.876 75.5127 424.7C74.8167 423.512 74.4687 421.868 74.4687 419.768ZM81.8127 419.768C81.8127 418.796 81.7467 417.974 81.6147 417.302C81.4947 416.63 81.2427 416.084 80.8587 415.664C80.4747 415.232 79.9047 415.016 79.1487 415.016C78.3927 415.016 77.8227 415.232 77.4387 415.664C77.0547 416.084 76.7967 416.63 76.6647 417.302C76.5447 417.974 76.4847 418.796 76.4847 419.768C76.4847 420.776 76.5447 421.622 76.6647 422.306C76.7847 422.99 77.0367 423.542 77.4207 423.962C77.8167 424.382 78.3927 424.592 79.1487 424.592C79.9047 424.592 80.4747 424.382 80.8587 423.962C81.2547 423.542 81.5127 422.99 81.6327 422.306C81.7527 421.622 81.8127 420.776 81.8127 419.768Z" fill="white"/>
<path d="M65.81 509.5V507.628H69.554V520.75H67.484V509.5H65.81ZM72.373 514.018C72.373 511.942 72.721 510.322 73.417 509.158C74.125 507.982 75.337 507.394 77.053 507.394C78.769 507.394 79.975 507.982 80.671 509.158C81.379 510.322 81.733 511.942 81.733 514.018C81.733 516.118 81.379 517.762 80.671 518.95C79.975 520.126 78.769 520.714 77.053 520.714C75.337 520.714 74.125 520.126 73.417 518.95C72.721 517.762 72.373 516.118 72.373 514.018ZM79.717 514.018C79.717 513.046 79.651 512.224 79.519 511.552C79.399 510.88 79.147 510.334 78.763 509.914C78.379 509.482 77.809 509.266 77.053 509.266C76.297 509.266 75.727 509.482 75.343 509.914C74.959 510.334 74.701 510.88 74.569 511.552C74.449 512.224 74.389 513.046 74.389 514.018C74.389 515.026 74.449 515.872 74.569 516.556C74.689 517.24 74.941 517.792 75.325 518.212C75.721 518.632 76.297 518.842 77.053 518.842C77.809 518.842 78.379 518.632 78.763 518.212C79.159 517.792 79.417 517.24 79.537 516.556C79.657 515.872 79.717 515.026 79.717 514.018Z" fill="white"/>
<path d="M69.08 608.268C69.08 606.192 69.428 604.572 70.124 603.408C70.832 602.232 72.044 601.644 73.76 601.644C75.476 601.644 76.682 602.232 77.378 603.408C78.086 604.572 78.44 606.192 78.44 608.268C78.44 610.368 78.086 612.012 77.378 613.2C76.682 614.376 75.476 614.964 73.76 614.964C72.044 614.964 70.832 614.376 70.124 613.2C69.428 612.012 69.08 610.368 69.08 608.268ZM76.424 608.268C76.424 607.296 76.358 606.474 76.226 605.802C76.106 605.13 75.854 604.584 75.47 604.164C75.086 603.732 74.516 603.516 73.76 603.516C73.004 603.516 72.434 603.732 72.05 604.164C71.666 604.584 71.408 605.13 71.276 605.802C71.156 606.474 71.096 607.296 71.096 608.268C71.096 609.276 71.156 610.122 71.276 610.806C71.396 611.49 71.648 612.042 72.032 612.462C72.428 612.882 73.004 613.092 73.76 613.092C74.516 613.092 75.086 612.882 75.47 612.462C75.866 612.042 76.124 611.49 76.244 610.806C76.364 610.122 76.424 609.276 76.424 608.268Z" fill="white"/>
<g filter="url(#filter2_ii_230_3000)">
<rect x="111" y="220" width="75" height="400" rx="15" fill="#2E333A"/>
</g>
<g filter="url(#filter3_d_230_3000)">
<rect x="111" y="331.737" width="75" height="288.263" rx="15" fill="#668599"/>
</g>
<g filter="url(#filter4_ii_230_3000)">
<rect x="236" y="220" width="75" height="400" rx="15" fill="#2E333A"/>
</g>
<g filter="url(#filter5_d_230_3000)">
<rect x="236" y="420" width="75" height="200" rx="15" fill="#668599"/>
</g>
<g filter="url(#filter6_ii_230_3000)">
<rect x="361" y="220" width="75" height="400" rx="15" fill="#2E333A"/>
</g>
<g filter="url(#filter7_d_230_3000)">
<rect x="361" y="274.46" width="75" height="345.54" rx="15" fill="#668599"/>
</g>
<g filter="url(#filter8_ii_230_3000)">
<rect x="486" y="220" width="75" height="400" rx="15" fill="#2E333A"/>
</g>
<g filter="url(#filter9_d_230_3000)">
<rect x="486" y="335" width="75" height="285" rx="15" fill="#668599"/>
</g>
<g filter="url(#filter10_ii_230_3000)">
<rect x="611" y="220" width="75" height="400" rx="15" fill="#2E333A"/>
</g>
<g filter="url(#filter11_d_230_3000)">
<rect x="611" y="294.178" width="75" height="325.822" rx="15" fill="#668599"/>
</g>
<g filter="url(#filter12_ii_230_3000)">
<rect x="736" y="220" width="75" height="400" rx="15" fill="#2E333A"/>
</g>
<g filter="url(#filter13_d_230_3000)">
<rect x="736" y="239.719" width="75" height="380.282" rx="15" fill="#0ED2F6"/>
</g>
<path d="M129.84 638.764C129.84 637.15 130.111 635.89 130.652 634.984C131.203 634.07 132.145 633.612 133.48 633.612C134.815 633.612 135.753 634.07 136.294 634.984C136.845 635.89 137.12 637.15 137.12 638.764C137.12 640.398 136.845 641.676 136.294 642.6C135.753 643.515 134.815 643.972 133.48 643.972C132.145 643.972 131.203 643.515 130.652 642.6C130.111 641.676 129.84 640.398 129.84 638.764ZM135.552 638.764C135.552 638.008 135.501 637.369 135.398 636.846C135.305 636.324 135.109 635.899 134.81 635.572C134.511 635.236 134.068 635.068 133.48 635.068C132.892 635.068 132.449 635.236 132.15 635.572C131.851 635.899 131.651 636.324 131.548 636.846C131.455 637.369 131.408 638.008 131.408 638.764C131.408 639.548 131.455 640.206 131.548 640.738C131.641 641.27 131.837 641.7 132.136 642.026C132.444 642.353 132.892 642.516 133.48 642.516C134.068 642.516 134.511 642.353 134.81 642.026C135.118 641.7 135.319 641.27 135.412 640.738C135.505 640.206 135.552 639.548 135.552 638.764ZM138.599 635.25V633.794H141.511V644H139.901V635.25H138.599ZM149.093 630.784L145.285 646.45H143.717L147.511 630.784H149.093ZM150.895 638.764C150.895 637.15 151.165 635.89 151.707 634.984C152.257 634.07 153.2 633.612 154.535 633.612C155.869 633.612 156.807 634.07 157.349 634.984C157.899 635.89 158.175 637.15 158.175 638.764C158.175 640.398 157.899 641.676 157.349 642.6C156.807 643.515 155.869 643.972 154.535 643.972C153.2 643.972 152.257 643.515 151.707 642.6C151.165 641.676 150.895 640.398 150.895 638.764ZM156.607 638.764C156.607 638.008 156.555 637.369 156.453 636.846C156.359 636.324 156.163 635.899 155.865 635.572C155.566 635.236 155.123 635.068 154.535 635.068C153.947 635.068 153.503 635.236 153.205 635.572C152.906 635.899 152.705 636.324 152.603 636.846C152.509 637.369 152.463 638.008 152.463 638.764C152.463 639.548 152.509 640.206 152.603 640.738C152.696 641.27 152.892 641.7 153.191 642.026C153.499 642.353 153.947 642.516 154.535 642.516C155.123 642.516 155.566 642.353 155.865 642.026C156.173 641.7 156.373 641.27 156.467 640.738C156.56 640.206 156.607 639.548 156.607 638.764ZM166.443 635.166H161.753V637.952C161.949 637.691 162.239 637.472 162.621 637.294C163.013 637.117 163.429 637.028 163.867 637.028C164.651 637.028 165.286 637.196 165.771 637.532C166.266 637.868 166.616 638.293 166.821 638.806C167.036 639.32 167.143 639.861 167.143 640.43C167.143 641.121 167.008 641.737 166.737 642.278C166.476 642.81 166.079 643.23 165.547 643.538C165.025 643.846 164.381 644 163.615 644C162.598 644 161.781 643.748 161.165 643.244C160.549 642.74 160.181 642.073 160.059 641.242H161.613C161.716 641.681 161.945 642.031 162.299 642.292C162.654 642.544 163.097 642.67 163.629 642.67C164.292 642.67 164.787 642.47 165.113 642.068C165.449 641.667 165.617 641.135 165.617 640.472C165.617 639.8 165.449 639.287 165.113 638.932C164.777 638.568 164.283 638.386 163.629 638.386C163.172 638.386 162.785 638.503 162.467 638.736C162.159 638.96 161.935 639.268 161.795 639.66H160.283V633.766H166.443V635.166Z" fill="white"/>
<path d="M254.84 638.764C254.84 637.15 255.111 635.89 255.652 634.984C256.203 634.07 257.145 633.612 258.48 633.612C259.815 633.612 260.753 634.07 261.294 634.984C261.845 635.89 262.12 637.15 262.12 638.764C262.12 640.398 261.845 641.676 261.294 642.6C260.753 643.515 259.815 643.972 258.48 643.972C257.145 643.972 256.203 643.515 255.652 642.6C255.111 641.676 254.84 640.398 254.84 638.764ZM260.552 638.764C260.552 638.008 260.501 637.369 260.398 636.846C260.305 636.324 260.109 635.899 259.81 635.572C259.511 635.236 259.068 635.068 258.48 635.068C257.892 635.068 257.449 635.236 257.15 635.572C256.851 635.899 256.651 636.324 256.548 636.846C256.455 637.369 256.408 638.008 256.408 638.764C256.408 639.548 256.455 640.206 256.548 640.738C256.641 641.27 256.837 641.7 257.136 642.026C257.444 642.353 257.892 642.516 258.48 642.516C259.068 642.516 259.511 642.353 259.81 642.026C260.118 641.7 260.319 641.27 260.412 640.738C260.505 640.206 260.552 639.548 260.552 638.764ZM263.599 635.25V633.794H266.511V644H264.901V635.25H263.599ZM274.093 630.784L270.285 646.45H268.717L272.511 630.784H274.093ZM275.895 638.764C275.895 637.15 276.165 635.89 276.707 634.984C277.257 634.07 278.2 633.612 279.535 633.612C280.869 633.612 281.807 634.07 282.349 634.984C282.899 635.89 283.175 637.15 283.175 638.764C283.175 640.398 282.899 641.676 282.349 642.6C281.807 643.515 280.869 643.972 279.535 643.972C278.2 643.972 277.257 643.515 276.707 642.6C276.165 641.676 275.895 640.398 275.895 638.764ZM281.607 638.764C281.607 638.008 281.555 637.369 281.453 636.846C281.359 636.324 281.163 635.899 280.865 635.572C280.566 635.236 280.123 635.068 279.535 635.068C278.947 635.068 278.503 635.236 278.205 635.572C277.906 635.899 277.705 636.324 277.603 636.846C277.509 637.369 277.463 638.008 277.463 638.764C277.463 639.548 277.509 640.206 277.603 640.738C277.696 641.27 277.892 641.7 278.191 642.026C278.499 642.353 278.947 642.516 279.535 642.516C280.123 642.516 280.566 642.353 280.865 642.026C281.173 641.7 281.373 641.27 281.467 640.738C281.56 640.206 281.607 639.548 281.607 638.764ZM291.443 635.166H286.753V637.952C286.949 637.691 287.239 637.472 287.621 637.294C288.013 637.117 288.429 637.028 288.867 637.028C289.651 637.028 290.286 637.196 290.771 637.532C291.266 637.868 291.616 638.293 291.821 638.806C292.036 639.32 292.143 639.861 292.143 640.43C292.143 641.121 292.008 641.737 291.737 642.278C291.476 642.81 291.079 643.23 290.547 643.538C290.025 643.846 289.381 644 288.615 644C287.598 644 286.781 643.748 286.165 643.244C285.549 642.74 285.181 642.073 285.059 641.242H286.613C286.716 641.681 286.945 642.031 287.299 642.292C287.654 642.544 288.097 642.67 288.629 642.67C289.292 642.67 289.787 642.47 290.113 642.068C290.449 641.667 290.617 641.135 290.617 640.472C290.617 639.8 290.449 639.287 290.113 638.932C289.777 638.568 289.283 638.386 288.629 638.386C288.172 638.386 287.785 638.503 287.467 638.736C287.159 638.96 286.935 639.268 286.795 639.66H285.283V633.766H291.443V635.166Z" fill="white"/>
<path d="M379.84 638.764C379.84 637.15 380.111 635.89 380.652 634.984C381.203 634.07 382.145 633.612 383.48 633.612C384.815 633.612 385.753 634.07 386.294 634.984C386.845 635.89 387.12 637.15 387.12 638.764C387.12 640.398 386.845 641.676 386.294 642.6C385.753 643.515 384.815 643.972 383.48 643.972C382.145 643.972 381.203 643.515 380.652 642.6C380.111 641.676 379.84 640.398 379.84 638.764ZM385.552 638.764C385.552 638.008 385.501 637.369 385.398 636.846C385.305 636.324 385.109 635.899 384.81 635.572C384.511 635.236 384.068 635.068 383.48 635.068C382.892 635.068 382.449 635.236 382.15 635.572C381.851 635.899 381.651 636.324 381.548 636.846C381.455 637.369 381.408 638.008 381.408 638.764C381.408 639.548 381.455 640.206 381.548 640.738C381.641 641.27 381.837 641.7 382.136 642.026C382.444 642.353 382.892 642.516 383.48 642.516C384.068 642.516 384.511 642.353 384.81 642.026C385.118 641.7 385.319 641.27 385.412 640.738C385.505 640.206 385.552 639.548 385.552 638.764ZM388.599 635.25V633.794H391.511V644H389.901V635.25H388.599ZM399.093 630.784L395.285 646.45H393.717L397.511 630.784H399.093ZM400.895 638.764C400.895 637.15 401.165 635.89 401.707 634.984C402.257 634.07 403.2 633.612 404.535 633.612C405.869 633.612 406.807 634.07 407.349 634.984C407.899 635.89 408.175 637.15 408.175 638.764C408.175 640.398 407.899 641.676 407.349 642.6C406.807 643.515 405.869 643.972 404.535 643.972C403.2 643.972 402.257 643.515 401.707 642.6C401.165 641.676 400.895 640.398 400.895 638.764ZM406.607 638.764C406.607 638.008 406.555 637.369 406.453 636.846C406.359 636.324 406.163 635.899 405.865 635.572C405.566 635.236 405.123 635.068 404.535 635.068C403.947 635.068 403.503 635.236 403.205 635.572C402.906 635.899 402.705 636.324 402.603 636.846C402.509 637.369 402.463 638.008 402.463 638.764C402.463 639.548 402.509 640.206 402.603 640.738C402.696 641.27 402.892 641.7 403.191 642.026C403.499 642.353 403.947 642.516 404.535 642.516C405.123 642.516 405.566 642.353 405.865 642.026C406.173 641.7 406.373 641.27 406.467 640.738C406.56 640.206 406.607 639.548 406.607 638.764ZM416.443 635.166H411.753V637.952C411.949 637.691 412.239 637.472 412.621 637.294C413.013 637.117 413.429 637.028 413.867 637.028C414.651 637.028 415.286 637.196 415.771 637.532C416.266 637.868 416.616 638.293 416.821 638.806C417.036 639.32 417.143 639.861 417.143 640.43C417.143 641.121 417.008 641.737 416.737 642.278C416.476 642.81 416.079 643.23 415.547 643.538C415.025 643.846 414.381 644 413.615 644C412.598 644 411.781 643.748 411.165 643.244C410.549 642.74 410.181 642.073 410.059 641.242H411.613C411.716 641.681 411.945 642.031 412.299 642.292C412.654 642.544 413.097 642.67 413.629 642.67C414.292 642.67 414.787 642.47 415.113 642.068C415.449 641.667 415.617 641.135 415.617 640.472C415.617 639.8 415.449 639.287 415.113 638.932C414.777 638.568 414.283 638.386 413.629 638.386C413.172 638.386 412.785 638.503 412.467 638.736C412.159 638.96 411.935 639.268 411.795 639.66H410.283V633.766H416.443V635.166Z" fill="white"/>
<path d="M504.84 638.764C504.84 637.15 505.111 635.89 505.652 634.984C506.203 634.07 507.145 633.612 508.48 633.612C509.815 633.612 510.753 634.07 511.294 634.984C511.845 635.89 512.12 637.15 512.12 638.764C512.12 640.398 511.845 641.676 511.294 642.6C510.753 643.515 509.815 643.972 508.48 643.972C507.145 643.972 506.203 643.515 505.652 642.6C505.111 641.676 504.84 640.398 504.84 638.764ZM510.552 638.764C510.552 638.008 510.501 637.369 510.398 636.846C510.305 636.324 510.109 635.899 509.81 635.572C509.511 635.236 509.068 635.068 508.48 635.068C507.892 635.068 507.449 635.236 507.15 635.572C506.851 635.899 506.651 636.324 506.548 636.846C506.455 637.369 506.408 638.008 506.408 638.764C506.408 639.548 506.455 640.206 506.548 640.738C506.641 641.27 506.837 641.7 507.136 642.026C507.444 642.353 507.892 642.516 508.48 642.516C509.068 642.516 509.511 642.353 509.81 642.026C510.118 641.7 510.319 641.27 510.412 640.738C510.505 640.206 510.552 639.548 510.552 638.764ZM513.599 635.25V633.794H516.511V644H514.901V635.25H513.599ZM524.093 630.784L520.285 646.45H518.717L522.511 630.784H524.093ZM525.895 638.764C525.895 637.15 526.165 635.89 526.707 634.984C527.257 634.07 528.2 633.612 529.535 633.612C530.869 633.612 531.807 634.07 532.349 634.984C532.899 635.89 533.175 637.15 533.175 638.764C533.175 640.398 532.899 641.676 532.349 642.6C531.807 643.515 530.869 643.972 529.535 643.972C528.2 643.972 527.257 643.515 526.707 642.6C526.165 641.676 525.895 640.398 525.895 638.764ZM531.607 638.764C531.607 638.008 531.555 637.369 531.453 636.846C531.359 636.324 531.163 635.899 530.865 635.572C530.566 635.236 530.123 635.068 529.535 635.068C528.947 635.068 528.503 635.236 528.205 635.572C527.906 635.899 527.705 636.324 527.603 636.846C527.509 637.369 527.463 638.008 527.463 638.764C527.463 639.548 527.509 640.206 527.603 640.738C527.696 641.27 527.892 641.7 528.191 642.026C528.499 642.353 528.947 642.516 529.535 642.516C530.123 642.516 530.566 642.353 530.865 642.026C531.173 641.7 531.373 641.27 531.467 640.738C531.56 640.206 531.607 639.548 531.607 638.764ZM541.443 635.166H536.753V637.952C536.949 637.691 537.239 637.472 537.621 637.294C538.013 637.117 538.429 637.028 538.867 637.028C539.651 637.028 540.286 637.196 540.771 637.532C541.266 637.868 541.616 638.293 541.821 638.806C542.036 639.32 542.143 639.861 542.143 640.43C542.143 641.121 542.008 641.737 541.737 642.278C541.476 642.81 541.079 643.23 540.547 643.538C540.025 643.846 539.381 644 538.615 644C537.598 644 536.781 643.748 536.165 643.244C535.549 642.74 535.181 642.073 535.059 641.242H536.613C536.716 641.681 536.945 642.031 537.299 642.292C537.654 642.544 538.097 642.67 538.629 642.67C539.292 642.67 539.787 642.47 540.113 642.068C540.449 641.667 540.617 641.135 540.617 640.472C540.617 639.8 540.449 639.287 540.113 638.932C539.777 638.568 539.283 638.386 538.629 638.386C538.172 638.386 537.785 638.503 537.467 638.736C537.159 638.96 536.935 639.268 536.795 639.66H535.283V633.766H541.443V635.166Z" fill="white"/>
<path d="M629.84 638.764C629.84 637.15 630.111 635.89 630.652 634.984C631.203 634.07 632.145 633.612 633.48 633.612C634.815 633.612 635.753 634.07 636.294 634.984C636.845 635.89 637.12 637.15 637.12 638.764C637.12 640.398 636.845 641.676 636.294 642.6C635.753 643.515 634.815 643.972 633.48 643.972C632.145 643.972 631.203 643.515 630.652 642.6C630.111 641.676 629.84 640.398 629.84 638.764ZM635.552 638.764C635.552 638.008 635.501 637.369 635.398 636.846C635.305 636.324 635.109 635.899 634.81 635.572C634.511 635.236 634.068 635.068 633.48 635.068C632.892 635.068 632.449 635.236 632.15 635.572C631.851 635.899 631.651 636.324 631.548 636.846C631.455 637.369 631.408 638.008 631.408 638.764C631.408 639.548 631.455 640.206 631.548 640.738C631.641 641.27 631.837 641.7 632.136 642.026C632.444 642.353 632.892 642.516 633.48 642.516C634.068 642.516 634.511 642.353 634.81 642.026C635.118 641.7 635.319 641.27 635.412 640.738C635.505 640.206 635.552 639.548 635.552 638.764ZM638.599 635.25V633.794H641.511V644H639.901V635.25H638.599ZM649.093 630.784L645.285 646.45H643.717L647.511 630.784H649.093ZM650.895 638.764C650.895 637.15 651.165 635.89 651.707 634.984C652.257 634.07 653.2 633.612 654.535 633.612C655.869 633.612 656.807 634.07 657.349 634.984C657.899 635.89 658.175 637.15 658.175 638.764C658.175 640.398 657.899 641.676 657.349 642.6C656.807 643.515 655.869 643.972 654.535 643.972C653.2 643.972 652.257 643.515 651.707 642.6C651.165 641.676 650.895 640.398 650.895 638.764ZM656.607 638.764C656.607 638.008 656.555 637.369 656.453 636.846C656.359 636.324 656.163 635.899 655.865 635.572C655.566 635.236 655.123 635.068 654.535 635.068C653.947 635.068 653.503 635.236 653.205 635.572C652.906 635.899 652.705 636.324 652.603 636.846C652.509 637.369 652.463 638.008 652.463 638.764C652.463 639.548 652.509 640.206 652.603 640.738C652.696 641.27 652.892 641.7 653.191 642.026C653.499 642.353 653.947 642.516 654.535 642.516C655.123 642.516 655.566 642.353 655.865 642.026C656.173 641.7 656.373 641.27 656.467 640.738C656.56 640.206 656.607 639.548 656.607 638.764ZM666.443 635.166H661.753V637.952C661.949 637.691 662.239 637.472 662.621 637.294C663.013 637.117 663.429 637.028 663.867 637.028C664.651 637.028 665.286 637.196 665.771 637.532C666.266 637.868 666.616 638.293 666.821 638.806C667.036 639.32 667.143 639.861 667.143 640.43C667.143 641.121 667.008 641.737 666.737 642.278C666.476 642.81 666.079 643.23 665.547 643.538C665.025 643.846 664.381 644 663.615 644C662.598 644 661.781 643.748 661.165 643.244C660.549 642.74 660.181 642.073 660.059 641.242H661.613C661.716 641.681 661.945 642.031 662.299 642.292C662.654 642.544 663.097 642.67 663.629 642.67C664.292 642.67 664.787 642.47 665.113 642.068C665.449 641.667 665.617 641.135 665.617 640.472C665.617 639.8 665.449 639.287 665.113 638.932C664.777 638.568 664.283 638.386 663.629 638.386C663.172 638.386 662.785 638.503 662.467 638.736C662.159 638.96 661.935 639.268 661.795 639.66H660.283V633.766H666.443V635.166Z" fill="white"/>
<path d="M754.84 638.764C754.84 637.15 755.111 635.89 755.652 634.984C756.203 634.07 757.145 633.612 758.48 633.612C759.815 633.612 760.753 634.07 761.294 634.984C761.845 635.89 762.12 637.15 762.12 638.764C762.12 640.398 761.845 641.676 761.294 642.6C760.753 643.515 759.815 643.972 758.48 643.972C757.145 643.972 756.203 643.515 755.652 642.6C755.111 641.676 754.84 640.398 754.84 638.764ZM760.552 638.764C760.552 638.008 760.501 637.369 760.398 636.846C760.305 636.324 760.109 635.899 759.81 635.572C759.511 635.236 759.068 635.068 758.48 635.068C757.892 635.068 757.449 635.236 757.15 635.572C756.851 635.899 756.651 636.324 756.548 636.846C756.455 637.369 756.408 638.008 756.408 638.764C756.408 639.548 756.455 640.206 756.548 640.738C756.641 641.27 756.837 641.7 757.136 642.026C757.444 642.353 757.892 642.516 758.48 642.516C759.068 642.516 759.511 642.353 759.81 642.026C760.118 641.7 760.319 641.27 760.412 640.738C760.505 640.206 760.552 639.548 760.552 638.764ZM763.599 635.25V633.794H766.511V644H764.901V635.25H763.599ZM774.093 630.784L770.285 646.45H768.717L772.511 630.784H774.093ZM775.895 638.764C775.895 637.15 776.165 635.89 776.707 634.984C777.257 634.07 778.2 633.612 779.535 633.612C780.869 633.612 781.807 634.07 782.349 634.984C782.899 635.89 783.175 637.15 783.175 638.764C783.175 640.398 782.899 641.676 782.349 642.6C781.807 643.515 780.869 643.972 779.535 643.972C778.2 643.972 777.257 643.515 776.707 642.6C776.165 641.676 775.895 640.398 775.895 638.764ZM781.607 638.764C781.607 638.008 781.555 637.369 781.453 636.846C781.359 636.324 781.163 635.899 780.865 635.572C780.566 635.236 780.123 635.068 779.535 635.068C778.947 635.068 778.503 635.236 778.205 635.572C777.906 635.899 777.705 636.324 777.603 636.846C777.509 637.369 777.463 638.008 777.463 638.764C777.463 639.548 777.509 640.206 777.603 640.738C777.696 641.27 777.892 641.7 778.191 642.026C778.499 642.353 778.947 642.516 779.535 642.516C780.123 642.516 780.566 642.353 780.865 642.026C781.173 641.7 781.373 641.27 781.467 640.738C781.56 640.206 781.607 639.548 781.607 638.764ZM791.443 635.166H786.753V637.952C786.949 637.691 787.239 637.472 787.621 637.294C788.013 637.117 788.429 637.028 788.867 637.028C789.651 637.028 790.286 637.196 790.771 637.532C791.266 637.868 791.616 638.293 791.821 638.806C792.036 639.32 792.143 639.861 792.143 640.43C792.143 641.121 792.008 641.737 791.737 642.278C791.476 642.81 791.079 643.23 790.547 643.538C790.025 643.846 789.381 644 788.615 644C787.598 644 786.781 643.748 786.165 643.244C785.549 642.74 785.181 642.073 785.059 641.242H786.613C786.716 641.681 786.945 642.031 787.299 642.292C787.654 642.544 788.097 642.67 788.629 642.67C789.292 642.67 789.787 642.47 790.113 642.068C790.449 641.667 790.617 641.135 790.617 640.472C790.617 639.8 790.449 639.287 790.113 638.932C789.777 638.568 789.283 638.386 788.629 638.386C788.172 638.386 787.785 638.503 787.467 638.736C787.159 638.96 786.935 639.268 786.795 639.66H785.283V633.766H791.443V635.166Z" fill="white"/>
</g>
<defs>
<filter id="filter0_dd_230_3000" x="0" y="0" width="1015" height="727" filterUnits="userSpaceOnUse" color-interpolation-filters="sRGB">
<feFlood flood-opacity="0" result="BackgroundImageFix"/>
<feColorMatrix in="SourceAlpha" type="matrix" values="0 0 0 0 0 0 0 0 0 0 0 0 0 0 0 0 0 0 127 0" result="hardAlpha"/>
<feOffset dx="-7" dy="-7"/>
<feGaussianBlur stdDeviation="15"/>
<feColorMatrix type="matrix" values="0 0 0 0 0.14902 0 0 0 0 0.180392 0 0 0 0 0.196078 0 0 0 1 0"/>
<feBlend mode="normal" in2="BackgroundImageFix" result="effect1_dropShadow_230_3000"/>
<feColorMatrix in="SourceAlpha" type="matrix" values="0 0 0 0 0 0 0 0 0 0 0 0 0 0 0 0 0 0 127 0" result="hardAlpha"/>
<feOffset dx="14" dy="14"/>
<feGaussianBlur stdDeviation="20"/>
<feColorMatrix type="matrix" values="0 0 0 0 0.0646354 0 0 0 0 0.0646354 0 0 0 0 0.0708333 0 0 0 0.75 0"/>
<feBlend mode="normal" in2="effect1_dropShadow_230_3000" result="effect2_dropShadow_230_3000"/>
<feBlend mode="normal" in="SourceGraphic" in2="effect2_dropShadow_230_3000" result="shape"/>
</filter>
<filter id="filter1_ii_230_3000" x="812" y="67" width="127" height="96" filterUnits="userSpaceOnUse" color-interpolation-filters="sRGB">
<feFlood flood-opacity="0" result="BackgroundImageFix"/>
<feBlend mode="normal" in="SourceGraphic" in2="BackgroundImageFix" result="shape"/>
<feColorMatrix in="SourceAlpha" type="matrix" values="0 0 0 0 0 0 0 0 0 0 0 0 0 0 0 0 0 0 127 0" result="hardAlpha"/>
<feOffset dx="3" dy="3"/>
<feGaussianBlur stdDeviation="2.5"/>
<feComposite in2="hardAlpha" operator="arithmetic" k2="-1" k3="1"/>
<feColorMatrix type="matrix" values="0 0 0 0 0 0 0 0 0 0 0 0 0 0 0 0 0 0 1 0"/>
<feBlend mode="normal" in2="shape" result="effect1_innerShadow_230_3000"/>
<feColorMatrix in="SourceAlpha" type="matrix" values="0 0 0 0 0 0 0 0 0 0 0 0 0 0 0 0 0 0 127 0" result="hardAlpha"/>
<feOffset dx="-5" dy="-5"/>
<feGaussianBlur stdDeviation="2.5"/>
<feComposite in2="hardAlpha" operator="arithmetic" k2="-1" k3="1"/>
<feColorMatrix type="matrix" values="0 0 0 0 0.231373 0 0 0 0 0.266667 0 0 0 0 0.317647 0 0 0 1 0"/>
<feBlend mode="normal" in2="effect1_innerShadow_230_3000" result="effect2_innerShadow_230_3000"/>
</filter>
<filter id="filter2_ii_230_3000" x="106" y="215" width="83" height="408" filterUnits="userSpaceOnUse" color-interpolation-filters="sRGB">
<feFlood flood-opacity="0" result="BackgroundImageFix"/>
<feBlend mode="normal" in="SourceGraphic" in2="BackgroundImageFix" result="shape"/>
<feColorMatrix in="SourceAlpha" type="matrix" values="0 0 0 0 0 0 0 0 0 0 0 0 0 0 0 0 0 0 127 0" result="hardAlpha"/>
<feOffset dx="3" dy="3"/>
<feGaussianBlur stdDeviation="2.5"/>
<feComposite in2="hardAlpha" operator="arithmetic" k2="-1" k3="1"/>
<feColorMatrix type="matrix" values="0 0 0 0 0 0 0 0 0 0 0 0 0 0 0 0 0 0 1 0"/>
<feBlend mode="normal" in2="shape" result="effect1_innerShadow_230_3000"/>
<feColorMatrix in="SourceAlpha" type="matrix" values="0 0 0 0 0 0 0 0 0 0 0 0 0 0 0 0 0 0 127 0" result="hardAlpha"/>
<feOffset dx="-5" dy="-5"/>
<feGaussianBlur stdDeviation="2.5"/>
<feComposite in2="hardAlpha" operator="arithmetic" k2="-1" k3="1"/>
<feColorMatrix type="matrix" values="0 0 0 0 0.231373 0 0 0 0 0.266667 0 0 0 0 0.317647 0 0 0 1 0"/>
<feBlend mode="normal" in2="effect1_innerShadow_230_3000" result="effect2_innerShadow_230_3000"/>
</filter>
<filter id="filter3_d_230_3000" x="109.569" y="330.306" width="80.7252" height="293.988" filterUnits="userSpaceOnUse" color-interpolation-filters="sRGB">
<feFlood flood-opacity="0" result="BackgroundImageFix"/>
<feColorMatrix in="SourceAlpha" type="matrix" values="0 0 0 0 0 0 0 0 0 0 0 0 0 0 0 0 0 0 127 0" result="hardAlpha"/>
<feOffset dx="1.43129" dy="1.43129"/>
<feGaussianBlur stdDeviation="1.43129"/>
<feColorMatrix type="matrix" values="0 0 0 0 0.531528 0 0 0 0 0.6278 0 0 0 0 0.716667 0 0 0 0.35 0"/>
<feBlend mode="normal" in2="BackgroundImageFix" result="effect1_dropShadow_230_3000"/>
<feBlend mode="normal" in="SourceGraphic" in2="effect1_dropShadow_230_3000" result="shape"/>
</filter>
<filter id="filter4_ii_230_3000" x="231" y="215" width="83" height="408" filterUnits="userSpaceOnUse" color-interpolation-filters="sRGB">
<feFlood flood-opacity="0" result="BackgroundImageFix"/>
<feBlend mode="normal" in="SourceGraphic" in2="BackgroundImageFix" result="shape"/>
<feColorMatrix in="SourceAlpha" type="matrix" values="0 0 0 0 0 0 0 0 0 0 0 0 0 0 0 0 0 0 127 0" result="hardAlpha"/>
<feOffset dx="3" dy="3"/>
<feGaussianBlur stdDeviation="2.5"/>
<feComposite in2="hardAlpha" operator="arithmetic" k2="-1" k3="1"/>
<feColorMatrix type="matrix" values="0 0 0 0 0 0 0 0 0 0 0 0 0 0 0 0 0 0 1 0"/>
<feBlend mode="normal" in2="shape" result="effect1_innerShadow_230_3000"/>
<feColorMatrix in="SourceAlpha" type="matrix" values="0 0 0 0 0 0 0 0 0 0 0 0 0 0 0 0 0 0 127 0" result="hardAlpha"/>
<feOffset dx="-5" dy="-5"/>
<feGaussianBlur stdDeviation="2.5"/>
<feComposite in2="hardAlpha" operator="arithmetic" k2="-1" k3="1"/>
<feColorMatrix type="matrix" values="0 0 0 0 0.231373 0 0 0 0 0.266667 0 0 0 0 0.317647 0 0 0 1 0"/>
<feBlend mode="normal" in2="effect1_innerShadow_230_3000" result="effect2_innerShadow_230_3000"/>
</filter>
<filter id="filter5_d_230_3000" x="234.569" y="418.569" width="80.7252" height="205.725" filterUnits="userSpaceOnUse" color-interpolation-filters="sRGB">
<feFlood flood-opacity="0" result="BackgroundImageFix"/>
<feColorMatrix in="SourceAlpha" type="matrix" values="0 0 0 0 0 0 0 0 0 0 0 0 0 0 0 0 0 0 127 0" result="hardAlpha"/>
<feOffset dx="1.43129" dy="1.43129"/>
<feGaussianBlur stdDeviation="1.43129"/>
<feColorMatrix type="matrix" values="0 0 0 0 0.531528 0 0 0 0 0.6278 0 0 0 0 0.716667 0 0 0 0.35 0"/>
<feBlend mode="normal" in2="BackgroundImageFix" result="effect1_dropShadow_230_3000"/>
<feBlend mode="normal" in="SourceGraphic" in2="effect1_dropShadow_230_3000" result="shape"/>
</filter>
<filter id="filter6_ii_230_3000" x="356" y="215" width="83" height="408" filterUnits="userSpaceOnUse" color-interpolation-filters="sRGB">
<feFlood flood-opacity="0" result="BackgroundImageFix"/>
<feBlend mode="normal" in="SourceGraphic" in2="BackgroundImageFix" result="shape"/>
<feColorMatrix in="SourceAlpha" type="matrix" values="0 0 0 0 0 0 0 0 0 0 0 0 0 0 0 0 0 0 127 0" result="hardAlpha"/>
<feOffset dx="3" dy="3"/>
<feGaussianBlur stdDeviation="2.5"/>
<feComposite in2="hardAlpha" operator="arithmetic" k2="-1" k3="1"/>
<feColorMatrix type="matrix" values="0 0 0 0 0 0 0 0 0 0 0 0 0 0 0 0 0 0 1 0"/>
<feBlend mode="normal" in2="shape" result="effect1_innerShadow_230_3000"/>
<feColorMatrix in="SourceAlpha" type="matrix" values="0 0 0 0 0 0 0 0 0 0 0 0 0 0 0 0 0 0 127 0" result="hardAlpha"/>
<feOffset dx="-5" dy="-5"/>
<feGaussianBlur stdDeviation="2.5"/>
<feComposite in2="hardAlpha" operator="arithmetic" k2="-1" k3="1"/>
<feColorMatrix type="matrix" values="0 0 0 0 0.231373 0 0 0 0 0.266667 0 0 0 0 0.317647 0 0 0 1 0"/>
<feBlend mode="normal" in2="effect1_innerShadow_230_3000" result="effect2_innerShadow_230_3000"/>
</filter>
<filter id="filter7_d_230_3000" x="359.569" y="273.029" width="80.7252" height="351.265" filterUnits="userSpaceOnUse" color-interpolation-filters="sRGB">
<feFlood flood-opacity="0" result="BackgroundImageFix"/>
<feColorMatrix in="SourceAlpha" type="matrix" values="0 0 0 0 0 0 0 0 0 0 0 0 0 0 0 0 0 0 127 0" result="hardAlpha"/>
<feOffset dx="1.43129" dy="1.43129"/>
<feGaussianBlur stdDeviation="1.43129"/>
<feColorMatrix type="matrix" values="0 0 0 0 0.531528 0 0 0 0 0.6278 0 0 0 0 0.716667 0 0 0 0.35 0"/>
<feBlend mode="normal" in2="BackgroundImageFix" result="effect1_dropShadow_230_3000"/>
<feBlend mode="normal" in="SourceGraphic" in2="effect1_dropShadow_230_3000" result="shape"/>
</filter>
<filter id="filter8_ii_230_3000" x="481" y="215" width="83" height="408" filterUnits="userSpaceOnUse" color-interpolation-filters="sRGB">
<feFlood flood-opacity="0" result="BackgroundImageFix"/>
<feBlend mode="normal" in="SourceGraphic" in2="BackgroundImageFix" result="shape"/>
<feColorMatrix in="SourceAlpha" type="matrix" values="0 0 0 0 0 0 0 0 0 0 0 0 0 0 0 0 0 0 127 0" result="hardAlpha"/>
<feOffset dx="3" dy="3"/>
<feGaussianBlur stdDeviation="2.5"/>
<feComposite in2="hardAlpha" operator="arithmetic" k2="-1" k3="1"/>
<feColorMatrix type="matrix" values="0 0 0 0 0 0 0 0 0 0 0 0 0 0 0 0 0 0 1 0"/>
<feBlend mode="normal" in2="shape" result="effect1_innerShadow_230_3000"/>
<feColorMatrix in="SourceAlpha" type="matrix" values="0 0 0 0 0 0 0 0 0 0 0 0 0 0 0 0 0 0 127 0" result="hardAlpha"/>
<feOffset dx="-5" dy="-5"/>
<feGaussianBlur stdDeviation="2.5"/>
<feComposite in2="hardAlpha" operator="arithmetic" k2="-1" k3="1"/>
<feColorMatrix type="matrix" values="0 0 0 0 0.231373 0 0 0 0 0.266667 0 0 0 0 0.317647 0 0 0 1 0"/>
<feBlend mode="normal" in2="effect1_innerShadow_230_3000" result="effect2_innerShadow_230_3000"/>
</filter>
<filter id="filter9_d_230_3000" x="484.569" y="333.569" width="80.7252" height="290.725" filterUnits="userSpaceOnUse" color-interpolation-filters="sRGB">
<feFlood flood-opacity="0" result="BackgroundImageFix"/>
<feColorMatrix in="SourceAlpha" type="matrix" values="0 0 0 0 0 0 0 0 0 0 0 0 0 0 0 0 0 0 127 0" result="hardAlpha"/>
<feOffset dx="1.43129" dy="1.43129"/>
<feGaussianBlur stdDeviation="1.43129"/>
<feColorMatrix type="matrix" values="0 0 0 0 0.531528 0 0 0 0 0.6278 0 0 0 0 0.716667 0 0 0 0.35 0"/>
<feBlend mode="normal" in2="BackgroundImageFix" result="effect1_dropShadow_230_3000"/>
<feBlend mode="normal" in="SourceGraphic" in2="effect1_dropShadow_230_3000" result="shape"/>
</filter>
<filter id="filter10_ii_230_3000" x="606" y="215" width="83" height="408" filterUnits="userSpaceOnUse" color-interpolation-filters="sRGB">
<feFlood flood-opacity="0" result="BackgroundImageFix"/>
<feBlend mode="normal" in="SourceGraphic" in2="BackgroundImageFix" result="shape"/>
<feColorMatrix in="SourceAlpha" type="matrix" values="0 0 0 0 0 0 0 0 0 0 0 0 0 0 0 0 0 0 127 0" result="hardAlpha"/>
<feOffset dx="3" dy="3"/>
<feGaussianBlur stdDeviation="2.5"/>
<feComposite in2="hardAlpha" operator="arithmetic" k2="-1" k3="1"/>
<feColorMatrix type="matrix" values="0 0 0 0 0 0 0 0 0 0 0 0 0 0 0 0 0 0 1 0"/>
<feBlend mode="normal" in2="shape" result="effect1_innerShadow_230_3000"/>
<feColorMatrix in="SourceAlpha" type="matrix" values="0 0 0 0 0 0 0 0 0 0 0 0 0 0 0 0 0 0 127 0" result="hardAlpha"/>
<feOffset dx="-5" dy="-5"/>
<feGaussianBlur stdDeviation="2.5"/>
<feComposite in2="hardAlpha" operator="arithmetic" k2="-1" k3="1"/>
<feColorMatrix type="matrix" values="0 0 0 0 0.231373 0 0 0 0 0.266667 0 0 0 0 0.317647 0 0 0 1 0"/>
<feBlend mode="normal" in2="effect1_innerShadow_230_3000" result="effect2_innerShadow_230_3000"/>
</filter>
<filter id="filter11_d_230_3000" x="609.569" y="292.747" width="80.7252" height="331.547" filterUnits="userSpaceOnUse" color-interpolation-filters="sRGB">
<feFlood flood-opacity="0" result="BackgroundImageFix"/>
<feColorMatrix in="SourceAlpha" type="matrix" values="0 0 0 0 0 0 0 0 0 0 0 0 0 0 0 0 0 0 127 0" result="hardAlpha"/>
<feOffset dx="1.43129" dy="1.43129"/>
<feGaussianBlur stdDeviation="1.43129"/>
<feColorMatrix type="matrix" values="0 0 0 0 0.531528 0 0 0 0 0.6278 0 0 0 0 0.716667 0 0 0 0.35 0"/>
<feBlend mode="normal" in2="BackgroundImageFix" result="effect1_dropShadow_230_3000"/>
<feBlend mode="normal" in="SourceGraphic" in2="effect1_dropShadow_230_3000" result="shape"/>
</filter>
<filter id="filter12_ii_230_3000" x="731" y="215" width="83" height="408" filterUnits="userSpaceOnUse" color-interpolation-filters="sRGB">
<feFlood flood-opacity="0" result="BackgroundImageFix"/>
<feBlend mode="normal" in="SourceGraphic" in2="BackgroundImageFix" result="shape"/>
<feColorMatrix in="SourceAlpha" type="matrix" values="0 0 0 0 0 0 0 0 0 0 0 0 0 0 0 0 0 0 127 0" result="hardAlpha"/>
<feOffset dx="3" dy="3"/>
<feGaussianBlur stdDeviation="2.5"/>
<feComposite in2="hardAlpha" operator="arithmetic" k2="-1" k3="1"/>
<feColorMatrix type="matrix" values="0 0 0 0 0 0 0 0 0 0 0 0 0 0 0 0 0 0 1 0"/>
<feBlend mode="normal" in2="shape" result="effect1_innerShadow_230_3000"/>
<feColorMatrix in="SourceAlpha" type="matrix" values="0 0 0 0 0 0 0 0 0 0 0 0 0 0 0 0 0 0 127 0" result="hardAlpha"/>
<feOffset dx="-5" dy="-5"/>
<feGaussianBlur stdDeviation="2.5"/>
<feComposite in2="hardAlpha" operator="arithmetic" k2="-1" k3="1"/>
<feColorMatrix type="matrix" values="0 0 0 0 0.231373 0 0 0 0 0.266667 0 0 0 0 0.317647 0 0 0 1 0"/>
<feBlend mode="normal" in2="effect1_innerShadow_230_3000" result="effect2_innerShadow_230_3000"/>
</filter>
<filter id="filter13_d_230_3000" x="734.569" y="238.287" width="80.7252" height="386.007" filterUnits="userSpaceOnUse" color-interpolation-filters="sRGB">
<feFlood flood-opacity="0" result="BackgroundImageFix"/>
<feColorMatrix in="SourceAlpha" type="matrix" values="0 0 0 0 0 0 0 0 0 0 0 0 0 0 0 0 0 0 127 0" result="hardAlpha"/>
<feOffset dx="1.43129" dy="1.43129"/>
<feGaussianBlur stdDeviation="1.43129"/>
<feColorMatrix type="matrix" values="0 0 0 0 0.531528 0 0 0 0 0.6278 0 0 0 0 0.716667 0 0 0 0.35 0"/>
<feBlend mode="normal" in2="BackgroundImageFix" result="effect1_dropShadow_230_3000"/>
<feBlend mode="normal" in="SourceGraphic" in2="effect1_dropShadow_230_3000" result="shape"/>
</filter>
</defs>
</svg>
