<svg width="40" height="40" viewBox="0 0 40 40" fill="none" xmlns="http://www.w3.org/2000/svg">
<mask id="path-1-inside-1_3562_3494" fill="white">
<path d="M15.4659 5L14.4069 5.12746C14.4069 5.12746 9.65573 5.64678 6.1859 8.43322H6.14522L6.10183 8.4739C5.32353 9.18983 4.98455 10.0698 4.44895 11.3566C3.81761 12.9048 3.28014 14.4896 2.83946 16.1024C1.83336 19.7403 1.01709 24.1471 1.01709 28.1783V28.5173L1.18658 28.8563C2.44217 31.0597 4.67133 32.463 6.73777 33.4325C8.80285 34.402 10.5886 34.9159 11.8225 34.958L12.6279 35L13.051 34.28L14.5344 31.6522C16.1073 32.0075 17.9188 32.2461 20.0001 32.2461C22.0815 32.2461 23.893 32.0075 25.4659 31.6522L26.9493 34.28L27.3737 35L28.1778 34.958C29.4117 34.9159 31.1974 34.402 33.2625 33.4325C35.3289 32.463 37.5581 31.0597 38.8137 28.8563L38.9832 28.5173V28.1783C38.9832 24.1471 38.1669 19.7403 37.1608 16.1024C36.7201 14.4896 36.1827 12.9048 35.5513 11.3566C35.0157 10.0685 34.6767 9.18983 33.8984 8.47525L33.8564 8.43186H33.813C30.3459 5.64678 25.5934 5.12746 25.5934 5.12746L24.5344 5L24.152 5.97492C24.152 5.97492 23.7601 6.96475 23.5174 8.09424C22.3517 7.9334 21.1768 7.84825 20.0001 7.83932C19.2747 7.83932 18.0205 7.88678 16.4828 8.09424C16.2388 6.96475 15.8469 5.97492 15.8469 5.97492L15.4659 5ZM13.6015 8.09424C13.6598 8.28407 13.7181 8.44814 13.771 8.60271C12.0178 9.03661 10.1479 9.6983 8.43268 10.7627L9.87268 13.0515C13.39 10.8685 18.4422 10.5512 20.0001 10.5512C21.5567 10.5512 26.6103 10.8685 30.1276 13.0515L31.5676 10.7627C29.8523 9.6983 27.9825 9.03661 26.2293 8.60136C26.2822 8.44814 26.3405 8.28407 26.3988 8.09288C27.6639 8.3478 30.0801 8.93085 32.0761 10.5092C32.0652 10.5146 32.5845 11.2983 33.051 12.4156C33.5283 13.5654 34.0571 15.0963 34.5344 16.8224C35.451 20.1322 36.171 24.1634 36.2293 27.7119C35.375 29.0149 33.7927 30.1905 32.1181 30.9756C31.0679 31.4719 29.9569 31.8275 28.8137 32.0332L28.1357 30.8902C28.5384 30.741 28.9357 30.5783 29.2801 30.4237C31.3669 29.5071 32.5005 28.5173 32.5005 28.5173L30.7201 26.4834C30.7201 26.4834 29.9581 27.1831 28.1778 27.9668C26.4001 28.7505 23.6815 29.5342 20.0001 29.5342C16.3188 29.5342 13.6015 28.7505 11.8225 27.9668C10.0422 27.1831 9.28014 26.4834 9.28014 26.4834L7.4998 28.5173C7.4998 28.5173 8.63336 29.5071 10.7201 30.4237C11.0645 30.5783 11.4618 30.7424 11.8645 30.8902L11.1866 32.0346C10.0428 31.8281 8.9313 31.4715 7.88082 30.9742C6.2076 30.1905 4.62387 29.0149 3.77234 27.7119C3.82929 24.1634 4.54929 20.1322 5.46726 16.8224C5.87289 15.3252 6.36778 13.8536 6.94929 12.4156C7.41573 11.2983 7.93505 10.5146 7.92421 10.5092C9.92014 8.93085 12.3364 8.3478 13.6015 8.09424ZM15.2544 17.3308C14.2062 17.3308 13.2788 17.9288 12.712 18.6868C12.1452 19.4447 11.8645 20.3763 11.8645 21.3986C11.8645 22.421 12.1452 23.3525 12.712 24.1105C13.2788 24.8685 14.2062 25.4664 15.2544 25.4664C16.3025 25.4664 17.23 24.8685 17.7967 24.1105C18.3635 23.3525 18.6442 22.421 18.6442 21.3986C18.6442 20.3763 18.3635 19.4447 17.7967 18.6868C17.23 17.9288 16.3025 17.3308 15.2544 17.3308ZM24.7459 17.3308C23.6978 17.3308 22.7703 17.9288 22.2035 18.6868C21.6367 19.4447 21.3561 20.3763 21.3561 21.3986C21.3561 22.421 21.6367 23.3525 22.2035 24.1105C22.7703 24.8685 23.6978 25.4664 24.7459 25.4664C25.794 25.4664 26.7215 24.8685 27.2883 24.1105C27.855 23.3525 28.1357 22.421 28.1357 21.3986C28.1357 20.3763 27.855 19.4447 27.2883 18.6868C26.7215 17.9288 25.794 17.3308 24.7459 17.3308ZM15.2544 20.0427C15.329 20.0427 15.4239 20.0698 15.5934 20.2976C15.7628 20.5241 15.9323 20.9214 15.9323 21.3986C15.9323 21.8759 15.7628 22.2732 15.5934 22.501C15.4239 22.7275 15.329 22.7546 15.2544 22.7546C15.1798 22.7546 15.0849 22.7275 14.9154 22.4997C14.6912 22.1766 14.5727 21.7919 14.5764 21.3986C14.5764 20.9214 14.7459 20.5241 14.9154 20.2963C15.0849 20.0698 15.1798 20.0427 15.2544 20.0427ZM24.7459 20.0427C24.8205 20.0427 24.9154 20.0698 25.0849 20.2976C25.2544 20.5241 25.4239 20.9214 25.4239 21.3986C25.4239 21.8759 25.2544 22.2732 25.0849 22.501C24.9154 22.7275 24.8205 22.7546 24.7459 22.7546C24.6713 22.7546 24.5764 22.7275 24.4069 22.4997C24.1827 22.1766 24.0642 21.7919 24.0679 21.3986C24.0679 20.9214 24.2374 20.5241 24.4069 20.2963C24.5764 20.0698 24.6713 20.0427 24.7459 20.0427Z"/>
</mask>
<path d="M15.4659 5L14.4069 5.12746C14.4069 5.12746 9.65573 5.64678 6.1859 8.43322H6.14522L6.10183 8.4739C5.32353 9.18983 4.98455 10.0698 4.44895 11.3566C3.81761 12.9048 3.28014 14.4896 2.83946 16.1024C1.83336 19.7403 1.01709 24.1471 1.01709 28.1783V28.5173L1.18658 28.8563C2.44217 31.0597 4.67133 32.463 6.73777 33.4325C8.80285 34.402 10.5886 34.9159 11.8225 34.958L12.6279 35L13.051 34.28L14.5344 31.6522C16.1073 32.0075 17.9188 32.2461 20.0001 32.2461C22.0815 32.2461 23.893 32.0075 25.4659 31.6522L26.9493 34.28L27.3737 35L28.1778 34.958C29.4117 34.9159 31.1974 34.402 33.2625 33.4325C35.3289 32.463 37.5581 31.0597 38.8137 28.8563L38.9832 28.5173V28.1783C38.9832 24.1471 38.1669 19.7403 37.1608 16.1024C36.7201 14.4896 36.1827 12.9048 35.5513 11.3566C35.0157 10.0685 34.6767 9.18983 33.8984 8.47525L33.8564 8.43186H33.813C30.3459 5.64678 25.5934 5.12746 25.5934 5.12746L24.5344 5L24.152 5.97492C24.152 5.97492 23.7601 6.96475 23.5174 8.09424C22.3517 7.9334 21.1768 7.84825 20.0001 7.83932C19.2747 7.83932 18.0205 7.88678 16.4828 8.09424C16.2388 6.96475 15.8469 5.97492 15.8469 5.97492L15.4659 5ZM13.6015 8.09424C13.6598 8.28407 13.7181 8.44814 13.771 8.60271C12.0178 9.03661 10.1479 9.6983 8.43268 10.7627L9.87268 13.0515C13.39 10.8685 18.4422 10.5512 20.0001 10.5512C21.5567 10.5512 26.6103 10.8685 30.1276 13.0515L31.5676 10.7627C29.8523 9.6983 27.9825 9.03661 26.2293 8.60136C26.2822 8.44814 26.3405 8.28407 26.3988 8.09288C27.6639 8.3478 30.0801 8.93085 32.0761 10.5092C32.0652 10.5146 32.5845 11.2983 33.051 12.4156C33.5283 13.5654 34.0571 15.0963 34.5344 16.8224C35.451 20.1322 36.171 24.1634 36.2293 27.7119C35.375 29.0149 33.7927 30.1905 32.1181 30.9756C31.0679 31.4719 29.9569 31.8275 28.8137 32.0332L28.1357 30.8902C28.5384 30.741 28.9357 30.5783 29.2801 30.4237C31.3669 29.5071 32.5005 28.5173 32.5005 28.5173L30.7201 26.4834C30.7201 26.4834 29.9581 27.1831 28.1778 27.9668C26.4001 28.7505 23.6815 29.5342 20.0001 29.5342C16.3188 29.5342 13.6015 28.7505 11.8225 27.9668C10.0422 27.1831 9.28014 26.4834 9.28014 26.4834L7.4998 28.5173C7.4998 28.5173 8.63336 29.5071 10.7201 30.4237C11.0645 30.5783 11.4618 30.7424 11.8645 30.8902L11.1866 32.0346C10.0428 31.8281 8.9313 31.4715 7.88082 30.9742C6.2076 30.1905 4.62387 29.0149 3.77234 27.7119C3.82929 24.1634 4.54929 20.1322 5.46726 16.8224C5.87289 15.3252 6.36778 13.8536 6.94929 12.4156C7.41573 11.2983 7.93505 10.5146 7.92421 10.5092C9.92014 8.93085 12.3364 8.3478 13.6015 8.09424ZM15.2544 17.3308C14.2062 17.3308 13.2788 17.9288 12.712 18.6868C12.1452 19.4447 11.8645 20.3763 11.8645 21.3986C11.8645 22.421 12.1452 23.3525 12.712 24.1105C13.2788 24.8685 14.2062 25.4664 15.2544 25.4664C16.3025 25.4664 17.23 24.8685 17.7967 24.1105C18.3635 23.3525 18.6442 22.421 18.6442 21.3986C18.6442 20.3763 18.3635 19.4447 17.7967 18.6868C17.23 17.9288 16.3025 17.3308 15.2544 17.3308ZM24.7459 17.3308C23.6978 17.3308 22.7703 17.9288 22.2035 18.6868C21.6367 19.4447 21.3561 20.3763 21.3561 21.3986C21.3561 22.421 21.6367 23.3525 22.2035 24.1105C22.7703 24.8685 23.6978 25.4664 24.7459 25.4664C25.794 25.4664 26.7215 24.8685 27.2883 24.1105C27.855 23.3525 28.1357 22.421 28.1357 21.3986C28.1357 20.3763 27.855 19.4447 27.2883 18.6868C26.7215 17.9288 25.794 17.3308 24.7459 17.3308ZM15.2544 20.0427C15.329 20.0427 15.4239 20.0698 15.5934 20.2976C15.7628 20.5241 15.9323 20.9214 15.9323 21.3986C15.9323 21.8759 15.7628 22.2732 15.5934 22.501C15.4239 22.7275 15.329 22.7546 15.2544 22.7546C15.1798 22.7546 15.0849 22.7275 14.9154 22.4997C14.6912 22.1766 14.5727 21.7919 14.5764 21.3986C14.5764 20.9214 14.7459 20.5241 14.9154 20.2963C15.0849 20.0698 15.1798 20.0427 15.2544 20.0427ZM24.7459 20.0427C24.8205 20.0427 24.9154 20.0698 25.0849 20.2976C25.2544 20.5241 25.4239 20.9214 25.4239 21.3986C25.4239 21.8759 25.2544 22.2732 25.0849 22.501C24.9154 22.7275 24.8205 22.7546 24.7459 22.7546C24.6713 22.7546 24.5764 22.7275 24.4069 22.4997C24.1827 22.1766 24.0642 21.7919 24.0679 21.3986C24.0679 20.9214 24.2374 20.5241 24.4069 20.2963C24.5764 20.0698 24.6713 20.0427 24.7459 20.0427Z" fill="#B2C2CB" stroke="#2E333A" stroke-width="0.8" mask="url(#path-1-inside-1_3562_3494)"/>
</svg>
