<svg width="40" height="40" viewBox="0 0 40 40" fill="none" xmlns="http://www.w3.org/2000/svg">
<path d="M5.2 20C5.2 18.048 6.79796 16.45 8.75 16.45C10.702 16.45 12.3 18.048 12.3 20C12.3 21.952 10.702 23.55 8.75 23.55C6.79796 23.55 5.2 21.952 5.2 20ZM27.7 20C27.7 18.048 29.298 16.45 31.25 16.45C33.202 16.45 34.8 18.048 34.8 20C34.8 21.952 33.202 23.55 31.25 23.55C29.298 23.55 27.7 21.952 27.7 20ZM16.45 20C16.45 18.048 18.048 16.45 20 16.45C21.952 16.45 23.55 18.048 23.55 20C23.55 21.952 21.952 23.55 20 23.55C18.048 23.55 16.45 21.952 16.45 20Z" fill="#B2C2CB" stroke="#2E333A" stroke-width="0.4"/>
</svg>
