<svg width="33" height="62" viewBox="0 0 33 62" fill="none" xmlns="http://www.w3.org/2000/svg">
<path d="M10.8992 32.6089L14.6726 28.8355L6.41923 20.5955C5.77923 19.9555 4.67256 20.1289 4.27256 20.9555C3.32589 22.9422 3.67256 25.3822 5.31256 27.0355L10.8992 32.6089ZM19.9392 30.1955C21.9792 31.1422 24.8459 30.4755 26.9659 28.3555C29.5126 25.8089 30.0059 22.1555 28.0459 20.1955C26.0992 18.2489 22.4459 18.7289 19.8859 21.2755C17.7659 23.3955 17.0992 26.2622 18.0459 28.3022L5.96589 40.3822C5.71659 40.6315 5.57653 40.9696 5.57653 41.3222C5.57653 41.6748 5.71659 42.0129 5.96589 42.2622C6.2152 42.5115 6.55332 42.6516 6.90589 42.6516C7.25846 42.6516 7.59659 42.5115 7.84589 42.2622L16.0992 34.0355L24.3392 42.2755C24.4627 42.399 24.6092 42.4969 24.7705 42.5637C24.9318 42.6305 25.1047 42.6649 25.2792 42.6649C25.4538 42.6649 25.6267 42.6305 25.788 42.5637C25.9492 42.4969 26.0958 42.399 26.2192 42.2755C26.3427 42.1521 26.4406 42.0055 26.5074 41.8443C26.5742 41.683 26.6086 41.5101 26.6086 41.3355C26.6086 41.161 26.5742 40.9881 26.5074 40.8268C26.4406 40.6655 26.3427 40.519 26.2192 40.3955L17.9792 32.1555L19.9392 30.1955Z" fill="#02E4C0"/>
</svg>
