<svg width="34" height="61" viewBox="0 0 34 61" fill="none" xmlns="http://www.w3.org/2000/svg">
<path d="M14.2966 29.2275C15.7756 31.6875 15.5581 34.5825 13.7891 35.7525C12.0201 36.8925 9.38113 35.8275 7.88763 33.3675C6.40863 30.9075 6.64063 27.9825 8.40963 26.8425C10.1786 25.7025 12.8176 26.7675 14.2966 29.2275ZM16.7471 39.4575C19.6471 39.4575 20.3721 38.3325 20.3721 38.3325C20.3721 38.3325 19.6471 41.3325 16.7471 41.3325C13.8471 41.3325 13.1221 38.3775 13.1221 38.3325C13.1221 38.3325 13.8471 39.4575 16.7471 39.4575ZM25.0846 26.8425C26.8536 27.9825 27.0856 30.9075 25.6066 33.3675C24.1131 35.8275 21.4741 36.8925 19.7051 35.7525C17.9361 34.5825 17.7186 31.6875 19.1976 29.2275C20.6766 26.7675 23.3156 25.7025 25.0846 26.8425ZM16.7471 42.8325C20.3721 42.8325 28.3471 35.1225 28.3471 29.3325C28.3471 23.5425 23.1416 18.8325 16.7471 18.8325C10.3526 18.8325 5.14713 23.5425 5.14713 29.3325C5.14713 35.1225 13.1221 42.8325 16.7471 42.8325ZM16.7471 15.8325C24.7221 15.8325 31.2471 21.8925 31.2471 29.3325C31.2471 35.4525 23.0111 45.8325 16.7471 45.8325C10.4831 45.8325 2.24713 35.4525 2.24713 29.3325C2.24713 21.8925 8.77213 15.8325 16.7471 15.8325Z" fill="#02E4C0"/>
</svg>
