<svg width="42" height="54" viewBox="0 0 42 54" fill="none" xmlns="http://www.w3.org/2000/svg">
<g clip-path="url(#clip0_182_3937)">
<path d="M32.0221 17.3326C29.5621 17.3326 27.2387 18.3214 25.5817 20.0342L13.5721 31.0528C12.4787 32.1829 11.0267 32.8009 9.47207 32.8009C6.27749 32.8009 3.66374 30.1346 3.66374 26.8325C3.66374 23.5305 6.27749 20.8642 9.47207 20.8642C11.0267 20.8642 12.4787 21.4822 13.6404 22.6829L15.5708 24.4487L18.1846 22.0826L15.9979 20.1225C15.1424 19.2349 14.1252 18.5313 13.0051 18.0525C11.885 17.5736 10.6842 17.3289 9.47207 17.3326C4.38124 17.3326 0.24707 21.6058 0.24707 26.8325C0.24707 32.0593 4.38124 36.3325 9.47207 36.3325C11.9321 36.3325 14.2554 35.3437 15.9125 33.6309L27.9221 22.6123C29.0154 21.4822 30.4675 20.8642 32.0221 20.8642C35.2167 20.8642 37.8304 23.5305 37.8304 26.8325C37.8304 30.1346 35.2167 32.8009 32.0221 32.8009C30.4846 32.8009 29.0154 32.1829 27.8537 30.9822L25.8721 29.1987L23.3096 31.5649L25.4962 33.5426C26.354 34.4257 27.372 35.1252 28.4919 35.6009C29.6117 36.0767 30.8114 36.3193 32.0221 36.3149C37.1129 36.3149 41.2471 32.0593 41.2471 26.8325C41.2471 21.5352 37.1129 17.3326 32.0221 17.3326Z" fill="#02E4C0"/>
</g>
<defs>
<clipPath id="clip0_182_3937">
<rect width="41" height="53" fill="white" transform="translate(0.24707 0.33252)"/>
</clipPath>
</defs>
</svg>
