<svg width="42" height="40" viewBox="0 0 42 40" fill="none" xmlns="http://www.w3.org/2000/svg">
<path d="M9.29177 9.71797L9.41648 9.68423L9.43701 9.55668C9.81702 7.19488 11.7586 5.35901 14.2212 5.31602C16.5451 5.27546 18.4616 6.85001 19.0649 8.99585L19.1066 9.14438L19.2609 9.14169L22.3583 9.08763L22.5124 9.08494L22.5491 8.93514C23.0783 6.76942 24.9388 5.12894 27.2627 5.08838C29.7253 5.0454 31.7298 6.81495 32.192 9.15824L32.2168 9.28434L32.3419 9.31411C34.7697 9.89205 36.8412 11.4256 37.8112 13.6307L37.8113 13.6338L37.8128 13.7205L37.877 13.7786L37.8836 13.7846L40.9851 22.0014L40.9847 22.0016L40.9899 22.013C41.4715 23.081 41.7474 24.2651 41.7691 25.5079C41.8549 30.4236 37.9116 34.507 32.9959 34.5928C28.5678 34.6701 24.8188 31.4793 24.056 27.2526L23.9873 26.8721L23.7165 27.148C23.0524 27.8242 22.149 28.2594 21.1447 28.2769C20.1403 28.2945 19.221 27.891 18.5353 27.2386L18.255 26.9719L18.1995 27.3548C17.5834 31.6057 13.9492 34.9253 9.52119 35.0026C4.60544 35.0884 0.522069 31.1451 0.436264 26.2294C0.411882 24.8325 0.726413 23.4989 1.28412 22.3052L1.28887 22.2951L1.29246 22.2844L3.88552 14.5878L3.92299 14.5872L3.96895 14.4556C4.83797 11.968 6.88953 10.3678 9.29177 9.71797ZM24.542 10.154L24.5613 11.2582L17.1363 11.3878L17.117 10.2836C17.1027 9.46117 16.8096 8.76097 16.3009 8.26973C15.7922 7.77849 15.0822 7.51002 14.2597 7.52438C13.4373 7.53874 12.7371 7.83181 12.2458 8.34051C11.7546 8.84921 11.4861 9.55921 11.5005 10.3817L11.518 11.3829L10.5176 11.5044L10.5172 11.5044C8.44253 11.7599 6.79831 13.0309 6.05187 15.137L6.03978 15.1711L6.04041 15.2073L6.04047 15.2107L5.1204 17.844L4.95791 18.3091L5.3986 18.0889C6.55053 17.5133 7.84319 17.1683 9.20948 17.1444C12.9362 17.0794 16.1677 19.3403 17.5597 22.5817L17.7112 22.9347L17.9135 22.6081C18.5573 21.5686 19.7115 20.8747 21.0151 20.852C22.32 20.8292 23.4977 21.4836 24.1762 22.4976L24.3898 22.8168L24.5288 22.4587C25.8055 19.1708 28.9561 16.7984 32.6841 16.7334C34.0664 16.7092 35.3808 17.0351 36.5644 17.5848L37.0061 17.79L36.836 17.3336L35.8095 14.5793L35.8089 14.5775C35.7991 14.5522 35.788 14.5303 35.7801 14.5152C35.7771 14.5095 35.7747 14.5049 35.7727 14.501C35.7685 14.4931 35.7657 14.4879 35.7628 14.4819C34.9514 12.6919 33.2 11.3202 31.1803 11.1438L31.18 11.1437L30.176 11.0573L30.1585 10.056C30.1442 9.23353 29.8511 8.53334 29.3424 8.04209C28.8337 7.55085 28.1237 7.28238 27.3012 7.29674C26.4788 7.3111 25.7786 7.60417 25.2873 8.11287C24.7961 8.62157 24.5276 9.33157 24.542 10.154ZM3.22427 23.3651L3.22426 23.3651L3.2233 23.3673C3.20167 23.418 3.19457 23.4703 3.1911 23.4958L3.19052 23.5001C3.18683 23.5267 3.18524 23.5336 3.18538 23.5336C2.84913 24.3529 2.62792 25.2341 2.64462 26.1908C2.70967 29.9176 5.7558 32.8593 9.48265 32.7942C13.2095 32.7292 16.1511 29.683 16.0861 25.9562C16.021 22.2293 12.9749 19.2877 9.24803 19.3528C6.53215 19.4002 4.24816 21.0437 3.22427 23.3651ZM39.5607 25.5464C39.4957 21.8196 36.4496 18.878 32.7227 18.943C28.9959 19.0081 26.0543 22.0542 26.1193 25.7811C26.1844 29.5079 29.2305 32.4495 32.9573 32.3845C36.6842 32.3194 39.6258 29.2733 39.5607 25.5464ZM22.584 24.5382C22.5693 23.6922 21.8996 23.0456 21.0537 23.0603C20.2077 23.0751 19.561 23.7447 19.5758 24.5907C19.5906 25.4367 20.2602 26.0834 21.1062 26.0686C21.9521 26.0538 22.5988 25.3842 22.584 24.5382Z" fill="white" stroke="#2E333A" stroke-width="0.4"/>
</svg>
