<svg width="40" height="40" viewBox="0 0 40 40" fill="none" xmlns="http://www.w3.org/2000/svg">
<path d="M23.5664 7.6264L23.425 7.48499L23.2836 7.62641L19.1031 11.8069L18.9616 11.9484L19.1031 12.0898L19.5678 12.5545C19.5678 12.5545 19.5678 12.5545 19.5678 12.5545C20.0301 13.0169 20.0301 13.7665 19.5678 14.2288L19.7092 14.3702L19.5678 14.2288C19.1055 14.6911 18.3558 14.6911 17.8935 14.2288L17.8935 14.2288L17.4287 13.7641L17.2873 13.6227L17.1459 13.7641L7.62641 23.2836L7.48498 23.425L7.62641 23.5664L8.82312 24.7631L8.96095 24.9009L9.10227 24.7667C10.8013 23.153 13.4872 23.1793 15.154 24.8461L15.2954 24.7047L15.154 24.8461C16.8207 26.5128 16.8471 29.1988 15.2333 30.8977L15.099 31.039L15.2369 31.1769L16.4336 32.3737L16.575 32.5151L16.7164 32.3737L26.2359 22.8541L26.3773 22.7127L26.2359 22.5713L25.505 21.8403L25.505 21.8403C25.0426 21.378 25.0426 20.6283 25.505 20.166L25.505 20.166C25.9673 19.7037 26.717 19.7037 27.1793 20.166L27.9103 20.897L28.0517 21.0384L28.1931 20.897L32.3737 16.7164L32.5151 16.575L32.3737 16.4336L31.0598 15.1197L30.9525 15.0124L30.8202 15.0869C29.1674 16.0174 27.0345 15.7788 25.6278 14.3722C24.2212 12.9655 23.9826 10.8326 24.9132 9.17975L24.9876 9.04751L24.8803 8.94021L23.5664 7.6264ZM25.2407 5.9521L25.3821 5.81068L25.2407 5.95211L27.415 8.1263C27.8773 8.58864 27.8773 9.33827 27.415 9.80061L27.415 9.80062L27.3022 9.91341C26.5332 10.6823 26.5332 11.9289 27.3022 12.6979C28.071 13.4668 29.3177 13.4668 30.0866 12.6979L30.0866 12.6979L30.1994 12.585C30.6617 12.1227 31.4114 12.1227 31.8737 12.585L32.0151 12.4436L31.8737 12.5851L34.048 14.7593C35.0507 15.7621 35.0507 17.3879 34.0479 18.3908L18.3908 34.048C17.3879 35.0507 15.7621 35.0507 14.7593 34.0479L12.5851 31.8737L12.4436 32.0151L12.5851 31.8737C12.1227 31.4114 12.1227 30.6617 12.5851 30.1994L12.4436 30.058L12.5851 30.1994L13.4797 29.3048L13.3382 29.1634L13.4797 29.3048C14.2485 28.5359 14.2486 27.2892 13.4796 26.5204C12.7107 25.7515 11.4641 25.7515 10.6952 26.5204L9.80062 27.415C9.33828 27.8773 8.58865 27.8773 8.12631 27.415L5.9521 25.2407L5.81068 25.3821L5.9521 25.2407C4.9493 24.238 4.9493 22.612 5.9521 21.6093L5.81068 21.4679L5.9521 21.6093L21.6093 5.9521L21.4679 5.81068L21.6093 5.9521C22.612 4.9493 24.238 4.9493 25.2407 5.9521ZM21.0073 15.6683L21.0073 15.6683C21.4696 15.206 22.2193 15.206 22.6816 15.6683L24.0655 17.0522C24.5278 17.5146 24.5278 18.2642 24.0655 18.7265C23.6032 19.1888 22.8535 19.1888 22.3912 18.7265L21.0073 17.3426L21.0073 17.3426C20.5449 16.8802 20.5449 16.1307 21.0073 15.6683Z" fill="#B2C2CB" stroke="#2E333A" stroke-width="0.4"/>
</svg>
