<svg width="40" height="40" viewBox="0 0 40 40" fill="none" xmlns="http://www.w3.org/2000/svg">
<mask id="path-1-inside-1_3562_4706" fill="white">
<path d="M22.731 35H17.271C16.9289 35.0001 16.5971 34.8832 16.3305 34.6687C16.064 34.4543 15.8788 34.1552 15.8055 33.821L15.195 30.995C14.3806 30.6382 13.6084 30.1919 12.8925 29.6645L10.137 30.542C9.81089 30.646 9.45897 30.6353 9.13973 30.5117C8.82048 30.3881 8.55312 30.159 8.38205 29.8625L5.64605 25.136C5.47677 24.8392 5.41322 24.4937 5.46581 24.1561C5.5184 23.8185 5.68401 23.5087 5.93555 23.2775L8.07305 21.3275C7.97584 20.4442 7.97584 19.5528 8.07305 18.6695L5.93555 16.724C5.68365 16.4927 5.51782 16.1826 5.46522 15.8447C5.41262 15.5067 5.47638 15.161 5.64605 14.864L8.37605 10.1345C8.54712 9.83797 8.81448 9.60889 9.13373 9.48528C9.45297 9.36168 9.80489 9.35099 10.131 9.455L12.8865 10.3325C13.2525 10.0625 13.6335 9.8105 14.0265 9.5825C14.406 9.3695 14.796 9.176 15.195 9.0035L15.807 6.1805C15.8799 5.8463 16.0648 5.54703 16.3311 5.33232C16.5973 5.11761 16.929 5.00036 17.271 5H22.731C23.0731 5.00036 23.4048 5.11761 23.671 5.33232C23.9373 5.54703 24.1222 5.8463 24.195 6.1805L24.813 9.005C25.627 9.36185 26.3987 9.80809 27.114 10.3355L29.871 9.458C30.197 9.35437 30.5486 9.36526 30.8675 9.48884C31.1864 9.61243 31.4535 9.84129 31.6245 10.1375L34.3545 14.867C34.7025 15.4775 34.5825 16.25 34.065 16.7255L31.9275 18.6755C32.0247 19.5588 32.0247 20.4502 31.9275 21.3335L34.065 23.2835C34.5825 23.7605 34.7025 24.5315 34.3545 25.142L31.6245 29.8715C31.4535 30.168 31.1861 30.3971 30.8669 30.5207C30.5476 30.6443 30.1957 30.655 29.8695 30.551L27.114 29.6735C26.3987 30.2005 25.627 30.6463 24.813 31.0025L24.195 33.821C24.1219 34.1549 23.9369 34.4538 23.6706 34.6683C23.4044 34.8827 23.0729 34.9997 22.731 35ZM13.431 26.3435L14.661 27.2435C14.9385 27.4475 15.2265 27.635 15.5265 27.806C15.8085 27.9695 16.0965 28.1165 16.395 28.25L17.7945 28.8635L18.48 32H21.525L22.2105 28.862L23.61 28.2485C24.2205 27.9785 24.801 27.644 25.3395 27.2495L26.5695 26.3495L29.6325 27.3245L31.155 24.6875L28.7805 22.523L28.9485 21.005C29.0235 20.3405 29.0235 19.67 28.9485 19.007L28.7805 17.489L31.1565 15.32L29.6325 12.6815L26.571 13.6565L25.3395 12.7565C24.8007 12.36 24.2209 12.0226 23.61 11.75L22.2105 11.1365L21.525 8H18.48L17.79 11.138L16.395 11.75C15.7833 12.0179 15.2033 12.353 14.6655 12.749L13.434 13.649L10.374 12.674L8.84855 15.32L11.223 17.4815L11.055 19.001C10.98 19.6655 10.98 20.336 11.055 20.999L11.223 22.517L8.84855 24.6815L10.371 27.3185L13.431 26.3435ZM19.995 26C18.4037 26 16.8776 25.3679 15.7524 24.2426C14.6272 23.1174 13.995 21.5913 13.995 20C13.995 18.4087 14.6272 16.8826 15.7524 15.7574C16.8776 14.6321 18.4037 14 19.995 14C21.5863 14 23.1125 14.6321 24.2377 15.7574C25.3629 16.8826 25.995 18.4087 25.995 20C25.995 21.5913 25.3629 23.1174 24.2377 24.2426C23.1125 25.3679 21.5863 26 19.995 26ZM19.995 17C19.4076 17.0006 18.8332 17.1737 18.3432 17.4977C17.8532 17.8218 17.4691 18.2826 17.2386 18.8229C17.0081 19.3633 16.9414 19.9594 17.0466 20.5374C17.1518 21.1154 17.4244 21.6497 17.8306 22.0741C18.2368 22.4986 18.7586 22.7944 19.3314 22.925C19.9042 23.0555 20.5027 23.015 21.0526 22.8085C21.6026 22.602 22.0798 22.2386 22.4251 21.7633C22.7704 21.2881 22.9686 20.7219 22.995 20.135V20.735V20C22.995 19.2044 22.679 18.4413 22.1164 17.8787C21.5538 17.3161 20.7907 17 19.995 17Z"/>
</mask>
<path d="M22.731 35H17.271C16.9289 35.0001 16.5971 34.8832 16.3305 34.6687C16.064 34.4543 15.8788 34.1552 15.8055 33.821L15.195 30.995C14.3806 30.6382 13.6084 30.1919 12.8925 29.6645L10.137 30.542C9.81089 30.646 9.45897 30.6353 9.13973 30.5117C8.82048 30.3881 8.55312 30.159 8.38205 29.8625L5.64605 25.136C5.47677 24.8392 5.41322 24.4937 5.46581 24.1561C5.5184 23.8185 5.68401 23.5087 5.93555 23.2775L8.07305 21.3275C7.97584 20.4442 7.97584 19.5528 8.07305 18.6695L5.93555 16.724C5.68365 16.4927 5.51782 16.1826 5.46522 15.8447C5.41262 15.5067 5.47638 15.161 5.64605 14.864L8.37605 10.1345C8.54712 9.83797 8.81448 9.60889 9.13373 9.48528C9.45297 9.36168 9.80489 9.35099 10.131 9.455L12.8865 10.3325C13.2525 10.0625 13.6335 9.8105 14.0265 9.5825C14.406 9.3695 14.796 9.176 15.195 9.0035L15.807 6.1805C15.8799 5.8463 16.0648 5.54703 16.3311 5.33232C16.5973 5.11761 16.929 5.00036 17.271 5H22.731C23.0731 5.00036 23.4048 5.11761 23.671 5.33232C23.9373 5.54703 24.1222 5.8463 24.195 6.1805L24.813 9.005C25.627 9.36185 26.3987 9.80809 27.114 10.3355L29.871 9.458C30.197 9.35437 30.5486 9.36526 30.8675 9.48884C31.1864 9.61243 31.4535 9.84129 31.6245 10.1375L34.3545 14.867C34.7025 15.4775 34.5825 16.25 34.065 16.7255L31.9275 18.6755C32.0247 19.5588 32.0247 20.4502 31.9275 21.3335L34.065 23.2835C34.5825 23.7605 34.7025 24.5315 34.3545 25.142L31.6245 29.8715C31.4535 30.168 31.1861 30.3971 30.8669 30.5207C30.5476 30.6443 30.1957 30.655 29.8695 30.551L27.114 29.6735C26.3987 30.2005 25.627 30.6463 24.813 31.0025L24.195 33.821C24.1219 34.1549 23.9369 34.4538 23.6706 34.6683C23.4044 34.8827 23.0729 34.9997 22.731 35ZM13.431 26.3435L14.661 27.2435C14.9385 27.4475 15.2265 27.635 15.5265 27.806C15.8085 27.9695 16.0965 28.1165 16.395 28.25L17.7945 28.8635L18.48 32H21.525L22.2105 28.862L23.61 28.2485C24.2205 27.9785 24.801 27.644 25.3395 27.2495L26.5695 26.3495L29.6325 27.3245L31.155 24.6875L28.7805 22.523L28.9485 21.005C29.0235 20.3405 29.0235 19.67 28.9485 19.007L28.7805 17.489L31.1565 15.32L29.6325 12.6815L26.571 13.6565L25.3395 12.7565C24.8007 12.36 24.2209 12.0226 23.61 11.75L22.2105 11.1365L21.525 8H18.48L17.79 11.138L16.395 11.75C15.7833 12.0179 15.2033 12.353 14.6655 12.749L13.434 13.649L10.374 12.674L8.84855 15.32L11.223 17.4815L11.055 19.001C10.98 19.6655 10.98 20.336 11.055 20.999L11.223 22.517L8.84855 24.6815L10.371 27.3185L13.431 26.3435ZM19.995 26C18.4037 26 16.8776 25.3679 15.7524 24.2426C14.6272 23.1174 13.995 21.5913 13.995 20C13.995 18.4087 14.6272 16.8826 15.7524 15.7574C16.8776 14.6321 18.4037 14 19.995 14C21.5863 14 23.1125 14.6321 24.2377 15.7574C25.3629 16.8826 25.995 18.4087 25.995 20C25.995 21.5913 25.3629 23.1174 24.2377 24.2426C23.1125 25.3679 21.5863 26 19.995 26ZM19.995 17C19.4076 17.0006 18.8332 17.1737 18.3432 17.4977C17.8532 17.8218 17.4691 18.2826 17.2386 18.8229C17.0081 19.3633 16.9414 19.9594 17.0466 20.5374C17.1518 21.1154 17.4244 21.6497 17.8306 22.0741C18.2368 22.4986 18.7586 22.7944 19.3314 22.925C19.9042 23.0555 20.5027 23.015 21.0526 22.8085C21.6026 22.602 22.0798 22.2386 22.4251 21.7633C22.7704 21.2881 22.9686 20.7219 22.995 20.135V20.735V20C22.995 19.2044 22.679 18.4413 22.1164 17.8787C21.5538 17.3161 20.7907 17 19.995 17Z" fill="#B2C2CB" stroke="#2E333A" mask="url(#path-1-inside-1_3562_4706)"/>
</svg>
