<svg width="40" height="40" viewBox="0 0 40 40" fill="none" xmlns="http://www.w3.org/2000/svg">
<path d="M17.7731 12.5845V12.9037L18.0908 12.9331C20.8023 13.1838 25.8855 14.0328 30.2818 16.9153C34.6566 19.7837 38.3731 24.6774 38.3731 33.0909H38.373L38.3732 33.0988C38.3805 33.4232 38.2839 33.7414 38.0977 34.0071C37.9118 34.2724 37.6461 34.4714 37.3394 34.5753C37.0377 34.6734 36.7129 34.6749 36.4103 34.5795C36.1072 34.4839 35.8416 34.2959 35.6507 34.0418L35.6429 34.0314L35.6343 34.0216C33.653 31.7559 31.2023 29.9485 28.4524 28.7248C25.7033 27.5016 22.721 26.891 19.7124 26.9355H18.1231H17.7731V27.2855V33.0903C17.7717 33.3894 17.6822 33.6814 17.5159 33.9299C17.3495 34.1787 17.1134 34.3729 16.8372 34.4883C16.561 34.6036 16.2569 34.635 15.9629 34.5785C15.6695 34.5221 15.3992 34.3807 15.1857 34.1718C15.1852 34.1714 15.1848 34.171 15.1844 34.1706L2.07781 21.064L2.07679 21.063C1.93406 20.9214 1.82078 20.753 1.74348 20.5674C1.66617 20.3819 1.62637 20.1828 1.62637 19.9818C1.62637 19.7808 1.66617 19.5818 1.74348 19.3962C1.82078 19.2107 1.93406 19.0422 2.07679 18.9007L2.0778 18.8997L15.1859 5.79159C15.1861 5.79143 15.1862 5.79127 15.1864 5.79111C15.4698 5.51026 15.8521 5.35187 16.2511 5.35C16.6547 5.3502 17.0417 5.5106 17.3271 5.796C17.6126 6.08156 17.7731 6.46888 17.7731 6.87273V12.5845ZM19.7138 23.8526L19.7166 23.8526C24.9096 23.8272 29.9721 25.478 34.1519 28.5597L34.9357 29.1376L34.6991 28.193C33.2024 22.2156 28.9932 19.1349 24.9765 17.5563C20.9682 15.981 17.1207 15.8864 16.2503 15.8864C15.8465 15.8864 15.4592 15.7259 15.1736 15.4404C14.888 15.1548 14.7276 14.7675 14.7276 14.3636V11.386V10.5397L14.1298 11.1388L5.55274 19.7346L5.30607 19.9818L5.55274 20.229L14.1298 28.8249L14.7276 29.4239V28.5777V25.6L14.7276 25.5996C14.7271 25.2349 14.8575 24.8823 15.095 24.6056C15.3319 24.3297 15.6597 24.1477 16.019 24.0925C17.2437 23.9289 18.4782 23.8487 19.7138 23.8526Z" fill="#B2C2CB" stroke="#2E333A" stroke-width="0.7"/>
</svg>
