<svg width="40" height="40" viewBox="0 0 40 40" fill="none" xmlns="http://www.w3.org/2000/svg">
<path d="M27.8787 8.19413L27.8831 8.44409L28.133 8.43972L31.4659 8.38155C33.1609 8.35196 34.573 9.7156 34.6025 11.4106L34.6316 13.077C34.7035 17.1963 31.6606 20.6138 27.6743 21.185L27.5312 21.2054L27.4776 21.3397C26.5016 23.7818 24.3509 25.6466 21.7262 26.2259L21.5265 26.2699L21.5301 26.4744L21.6203 31.6403L21.6246 31.8902L21.8746 31.8859L26.8738 31.7986C27.6562 31.7849 28.3014 32.408 28.315 33.1903C28.3287 33.9726 27.7056 34.6178 26.9233 34.6315L13.592 34.8642C12.8097 34.8778 12.1645 34.2548 12.1508 33.4725C12.1372 32.6902 12.7603 32.0449 13.5425 32.0313L18.5418 31.944L18.7917 31.9397L18.7874 31.6897L18.6972 26.5238L18.6936 26.3194L18.4926 26.2823C15.8493 25.795 13.6347 24.0064 12.5742 21.5998L12.5159 21.4675L12.3722 21.452C8.36836 21.0204 5.20802 17.7111 5.13612 13.5919L5.10703 11.9254C5.07745 10.2304 6.44108 8.81836 8.13609 8.78877L11.4689 8.7306L11.7189 8.72624L11.7145 8.47627C11.6848 6.77365 13.0409 5.36932 14.7436 5.3396L24.742 5.16507C26.4447 5.13535 27.849 6.4915 27.8787 8.19413ZM8.18553 11.6217L7.93557 11.626L7.93994 11.876L7.96902 13.5424C8.00878 15.8201 9.51396 17.7175 11.5528 18.4157L11.89 18.5311L11.8838 18.1748L11.7727 11.8091L11.7683 11.5591L11.5184 11.5635L8.18553 11.6217ZM14.793 8.1725L14.543 8.17686L14.5474 8.42682L14.7219 18.4253C14.7723 21.3129 17.1751 23.6333 20.0628 23.5829C22.9504 23.5325 25.2707 21.1297 25.2203 18.2421L25.0458 8.24357L25.0415 7.99361L24.7915 7.99798L14.793 8.1725ZM28.048 17.8926L28.0542 18.249L28.3872 18.1218C30.4004 17.3529 31.8385 15.4042 31.7987 13.1265L31.7696 11.4601L31.7653 11.2101L31.5153 11.2145L28.1825 11.2726L27.9325 11.277L27.9369 11.527L28.048 17.8926Z" fill="#B2C2CB" stroke="#2E333A" stroke-width="0.5"/>
</svg>
