<svg width="40" height="40" viewBox="0 0 40 40" fill="none" xmlns="http://www.w3.org/2000/svg">
<path fill-rule="evenodd" clip-rule="evenodd" d="M18.6498 14.3632C18.6498 10.5842 21.7133 7.52075 25.4923 7.52075C27.7111 7.52075 29.4814 8.5689 30.6674 10.0919C31.9218 9.83475 33.1245 9.36954 34.2254 8.71551C33.7991 10.042 32.9067 11.1692 31.7133 11.8884L31.7177 11.895C32.8506 11.7581 33.9567 11.4535 35 10.9912L34.9978 10.9956C34.2604 12.1006 33.3348 13.0744 32.2669 13.8687C32.3238 14.256 32.3545 14.6433 32.3545 15.0284C32.3545 23.0963 26.2078 32.4793 14.9036 32.4793C11.5704 32.4822 8.30678 31.525 5.50314 29.7222C5.37115 29.6375 5.25891 29.5254 5.17404 29.3935C5.08917 29.2616 5.03364 29.113 5.01123 28.9577C4.98882 28.8025 5.00004 28.6443 5.04414 28.4938C5.08824 28.3433 5.16418 28.204 5.26682 28.0854C5.36442 27.9231 5.50674 27.7924 5.67673 27.709C5.84672 27.6255 6.03717 27.5929 6.22524 27.6149C8.22963 27.8513 10.2296 27.6062 11.9955 26.8359C11.1245 26.4511 10.3448 25.8864 9.70743 25.1789C9.0701 24.4715 8.5896 23.6372 8.29747 22.7309C8.24345 22.5623 8.23587 22.3823 8.27554 22.2098C8.3152 22.0373 8.40064 21.8786 8.52285 21.7506C7.80372 21.1195 7.2277 20.342 6.83334 19.4703C6.43898 18.5986 6.23539 17.6526 6.23619 16.6958V16.6215C6.23613 16.3925 6.31584 16.1707 6.46161 15.9942C6.60737 15.8177 6.81008 15.6975 7.03488 15.6543C6.53877 14.6969 6.28057 13.6341 6.28214 12.5558C6.28214 11.5317 6.2887 10.2407 7.00862 9.07656C7.08554 8.95323 7.1888 8.84846 7.311 8.76977C7.4332 8.69108 7.57131 8.64041 7.71541 8.62141C7.92435 8.55552 8.14827 8.55386 8.35816 8.61668C8.56805 8.67949 8.75426 8.80387 8.89265 8.97371C11.3319 11.9744 14.8207 13.9354 18.652 14.4595V14.3632H18.6498ZM14.9036 30.2911C12.3331 30.2749 8.90827 29.5001 8.89265 29.3935C8.87704 29.2868 13.5228 29.3935 15.5478 26.7024C15.6877 26.5164 15.6026 26.2994 15.5379 26.1066C15.4731 25.9137 15.3502 25.7457 15.1861 25.6255C15.022 25.5054 14.8247 25.439 14.6213 25.4355C13.8888 25.4223 13.1691 25.2401 12.5186 24.903C11.868 24.566 11.3041 24.0832 10.8708 23.4924C11.2865 23.4596 11.6935 23.3873 12.0874 23.2823C12.3021 23.2249 12.4911 23.0966 12.6236 22.9181C12.7561 22.7397 12.8244 22.5217 12.8173 22.2996C12.8102 22.0774 12.7281 21.8642 12.5845 21.6946C12.4409 21.525 12.2441 21.409 12.0261 21.3655C11.1937 21.1968 10.4213 20.8089 9.78889 20.2419C9.15647 19.6749 8.68692 18.9493 8.42876 18.1401C8.8664 18.2451 9.32373 18.3085 9.792 18.3239C10.006 18.3311 10.2165 18.2683 10.3916 18.1451C10.5668 18.0219 10.697 17.845 10.7625 17.6412C10.8281 17.4374 10.8254 17.2177 10.7549 17.0156C10.6844 16.8134 10.5499 16.6397 10.3719 16.5208C9.71892 16.0858 9.18352 15.4963 8.81323 14.8045C8.44294 14.1128 8.24924 13.3404 8.24932 12.5558C8.24932 12.1882 8.25589 11.8621 8.27777 11.5645C11.3397 14.6892 15.4664 16.5456 19.8358 16.7637C20.0045 16.7723 20.173 16.7417 20.3279 16.6743C20.4828 16.6069 20.62 16.5045 20.7287 16.3752C20.8375 16.2459 20.9148 16.0932 20.9546 15.929C20.9945 15.7648 20.9957 15.5936 20.9584 15.4289C20.7976 14.7456 20.7936 14.0349 20.9464 13.3498C21.0992 12.6647 21.405 12.0231 21.8409 11.4729C22.2768 10.9228 22.8315 10.4783 23.4634 10.1728C24.0953 9.86737 24.7882 9.70878 25.4901 9.70895C28.1903 9.70895 30.1641 12.2101 30.1641 15.0306C30.1641 22.1554 23.4634 30.3449 14.9036 30.2911Z" fill="#B2C2CB"/>
<path fill-rule="evenodd" clip-rule="evenodd" d="M18.6498 14.3632C18.6498 10.5842 21.7133 7.52075 25.4923 7.52075C27.7111 7.52075 29.4814 8.5689 30.6674 10.0919C31.9218 9.83475 33.1245 9.36954 34.2254 8.71551C33.7991 10.042 32.9067 11.1692 31.7133 11.8884L31.7177 11.895C32.8506 11.7581 33.9567 11.4535 35 10.9912L34.9978 10.9956C34.2604 12.1006 33.3348 13.0744 32.2669 13.8687C32.3238 14.256 32.3545 14.6433 32.3545 15.0284C32.3545 23.0963 26.2078 32.4793 14.9036 32.4793C11.5704 32.4822 8.30678 31.525 5.50314 29.7222C5.37115 29.6375 5.25891 29.5254 5.17404 29.3935C5.08917 29.2616 5.03364 29.113 5.01123 28.9577C4.98882 28.8025 5.00004 28.6443 5.04414 28.4938C5.08824 28.3433 5.16418 28.204 5.26682 28.0854C5.36442 27.9231 5.50674 27.7924 5.67673 27.709C5.84672 27.6255 6.03717 27.5929 6.22524 27.6149C8.22963 27.8513 10.2296 27.6062 11.9955 26.8359C11.1245 26.4511 10.3448 25.8864 9.70743 25.1789C9.0701 24.4715 8.5896 23.6372 8.29747 22.7309C8.24345 22.5623 8.23587 22.3823 8.27554 22.2098C8.3152 22.0373 8.40064 21.8786 8.52285 21.7506C7.80372 21.1195 7.2277 20.342 6.83334 19.4703C6.43898 18.5986 6.23539 17.6526 6.23619 16.6958V16.6215C6.23613 16.3925 6.31584 16.1707 6.46161 15.9942C6.60737 15.8177 6.81008 15.6975 7.03488 15.6543C6.53877 14.6969 6.28057 13.6341 6.28214 12.5558C6.28214 11.5317 6.2887 10.2407 7.00862 9.07656C7.08554 8.95323 7.1888 8.84846 7.311 8.76977C7.4332 8.69108 7.57131 8.64041 7.71541 8.62141C7.92435 8.55552 8.14827 8.55386 8.35816 8.61668C8.56805 8.67949 8.75426 8.80387 8.89265 8.97371C11.3319 11.9744 14.8207 13.9354 18.652 14.4595V14.3632H18.6498ZM14.9036 30.2911C12.3331 30.2749 8.90827 29.5001 8.89265 29.3935C8.87704 29.2868 13.5228 29.3935 15.5478 26.7024C15.6877 26.5164 15.6026 26.2994 15.5379 26.1066C15.4731 25.9137 15.3502 25.7457 15.1861 25.6255C15.022 25.5054 14.8247 25.439 14.6213 25.4355C13.8888 25.4223 13.1691 25.2401 12.5186 24.903C11.868 24.566 11.3041 24.0832 10.8708 23.4924C11.2865 23.4596 11.6935 23.3873 12.0874 23.2823C12.3021 23.2249 12.4911 23.0966 12.6236 22.9181C12.7561 22.7397 12.8244 22.5217 12.8173 22.2996C12.8102 22.0774 12.7281 21.8642 12.5845 21.6946C12.4409 21.525 12.2441 21.409 12.0261 21.3655C11.1937 21.1968 10.4213 20.8089 9.78889 20.2419C9.15647 19.6749 8.68692 18.9493 8.42876 18.1401C8.8664 18.2451 9.32373 18.3085 9.792 18.3239C10.006 18.3311 10.2165 18.2683 10.3916 18.1451C10.5668 18.0219 10.697 17.845 10.7625 17.6412C10.8281 17.4374 10.8254 17.2177 10.7549 17.0156C10.6844 16.8134 10.5499 16.6397 10.3719 16.5208C9.71892 16.0858 9.18352 15.4963 8.81323 14.8045C8.44294 14.1128 8.24924 13.3404 8.24932 12.5558C8.24932 12.1882 8.25589 11.8621 8.27777 11.5645C11.3397 14.6892 15.4664 16.5456 19.8358 16.7637C20.0045 16.7723 20.173 16.7417 20.3279 16.6743C20.4828 16.6069 20.62 16.5045 20.7287 16.3752C20.8375 16.2459 20.9148 16.0932 20.9546 15.929C20.9945 15.7648 20.9957 15.5936 20.9584 15.4289C20.7976 14.7456 20.7936 14.0349 20.9464 13.3498C21.0992 12.6647 21.405 12.0231 21.8409 11.4729C22.2768 10.9228 22.8315 10.4783 23.4634 10.1728C24.0953 9.86737 24.7882 9.70878 25.4901 9.70895C28.1903 9.70895 30.1641 12.2101 30.1641 15.0306C30.1641 22.1554 23.4634 30.3449 14.9036 30.2911Z" stroke="#2E333A" stroke-width="0.5"/>
</svg>
